<svg version="1.1" xmlns="http://www.w3.org/2000/svg" width="512" height="512">
<path d="M0 0 C5.02810893 2.68091649 8.4118635 6.80227776 11.078125 11.75390625 C11.765625 14.31640625 11.765625 14.31640625 11.765625 21.31640625 C22.985625 21.31640625 34.205625 21.31640625 45.765625 21.31640625 C45.765625 19.00640625 45.765625 16.69640625 45.765625 14.31640625 C47.50546805 8.16751995 51.5354627 3.82340603 56.765625 0.31640625 C62.37491675 -1.55335767 69.31818432 -1.73831773 75 0 C80.02810893 2.68091649 83.4118635 6.80227776 86.078125 11.75390625 C86.765625 14.31640625 86.765625 14.31640625 86.765625 21.31640625 C97.985625 21.31640625 109.205625 21.31640625 120.765625 21.31640625 C120.765625 19.00640625 120.765625 16.69640625 120.765625 14.31640625 C122.50546805 8.16751995 126.5354627 3.82340603 131.765625 0.31640625 C137.37491675 -1.55335767 144.31818432 -1.73831773 150 0 C155.02810893 2.68091649 158.4118635 6.80227776 161.078125 11.75390625 C161.765625 14.31640625 161.765625 14.31640625 161.765625 21.31640625 C172.985625 21.31640625 184.205625 21.31640625 195.765625 21.31640625 C195.765625 19.00640625 195.765625 16.69640625 195.765625 14.31640625 C197.50546805 8.16751995 201.5354627 3.82340603 206.765625 0.31640625 C212.37491675 -1.55335767 219.31818432 -1.73831773 225 0 C230.02810893 2.68091649 233.4118635 6.80227776 236.078125 11.75390625 C236.94618455 14.98940094 236.80855743 17.97938564 236.765625 21.31640625 C238.05138428 21.28498535 239.33714355 21.25356445 240.66186523 21.22119141 C245.46434142 21.11201261 250.26670952 21.0434999 255.07006836 20.98681641 C257.1428476 20.95677379 259.2155011 20.91592658 261.2878418 20.86376953 C264.27945075 20.79039994 267.26936951 20.75682452 270.26171875 20.73046875 C271.17771347 20.69950104 272.09370819 20.66853333 273.03746033 20.6366272 C280.05210229 20.63301573 284.56618385 22.59419051 289.765625 27.31640625 C295.12333736 33.62182227 294.37013877 40.83634167 294.375 48.78125 C294.38999832 50.18374018 294.40672892 51.5862128 294.42510986 52.98866272 C294.4686113 56.65960548 294.48874376 60.33031006 294.50384521 64.00146484 C294.52347893 67.75567611 294.56544161 71.50963246 294.60546875 75.26367188 C294.68058399 82.61451451 294.73098787 89.96524953 294.765625 97.31640625 C295.58313484 96.58556068 295.58313484 96.58556068 296.41716003 95.83995056 C297.49300102 94.88651512 297.49300102 94.88651512 298.59057617 93.91381836 C299.30058273 93.28221298 300.01058929 92.6506076 300.74211121 91.99986267 C306.66755809 87.07020435 314.45648269 85.59033546 322.0078125 85.9453125 C331.96405186 87.28503309 338.58172554 91.43899076 344.765625 99.31640625 C350.39784439 107.20151339 349.77555434 117.55847483 348.3984375 126.7734375 C345.06839403 137.97241932 331.89963377 147.29554444 323.765625 155.31640625 C324.15717773 156.16513306 324.15717773 156.16513306 324.55664062 157.03100586 C340.52300277 191.93120858 349.22272833 227.24311049 349.140625 265.62890625 C349.13980927 267.07165421 349.13980927 267.07165421 349.13897705 268.54354858 C349.07588046 292.91927568 345.83676003 315.9429802 338.765625 339.31640625 C338.40525146 340.53505371 338.40525146 340.53505371 338.03759766 341.77832031 C331.29287718 364.12677124 320.41650385 386.38777345 306.765625 405.31640625 C306.29447266 405.97850098 305.82332031 406.6405957 305.33789062 407.32275391 C267.52081482 460.17325338 211.42854064 497.10754007 147.11328125 508.4921875 C145.33189789 508.77440569 143.54918848 509.04831096 141.765625 509.31640625 C140.63374756 509.49373291 139.50187012 509.67105957 138.33569336 509.85375977 C126.95178602 511.47529002 115.68943377 511.67465918 104.203125 511.62890625 C103.23007416 511.6267511 102.25702332 511.62459595 101.25448608 511.62237549 C86.90776768 511.57137882 72.86197155 511.22775042 58.765625 508.31640625 C57.29101807 508.01839111 57.29101807 508.01839111 55.78662109 507.71435547 C16.80997498 499.60813603 -20.70514189 483.15357441 -51.234375 457.31640625 C-51.84474609 456.80609863 -52.45511719 456.29579102 -53.08398438 455.77001953 C-65.63177587 445.25277023 -77.13983449 434.25674807 -87.234375 421.31640625 C-88.02328125 420.33285156 -88.8121875 419.34929687 -89.625 418.3359375 C-115.73335355 385.51445028 -133.00201304 345.77857816 -139.234375 304.31640625 C-139.41170166 303.18452881 -139.58902832 302.05265137 -139.77172852 300.88647461 C-141.39325877 289.50256727 -141.59262793 278.24021502 -141.546875 266.75390625 C-141.54471985 265.78085541 -141.5425647 264.80780457 -141.54034424 263.80526733 C-141.48934757 249.45854893 -141.14571917 235.4127528 -138.234375 221.31640625 C-138.03569824 220.33333496 -137.83702148 219.35026367 -137.63232422 218.33740234 C-131.24276238 187.61485746 -119.80096038 158.40350953 -102.57421875 132.0859375 C-102.09984375 131.34174561 -101.62546875 130.59755371 -101.13671875 129.83081055 C-99.559651 127.74633663 -98.14526481 126.29487527 -96.22265625 124.57739258 C-88.25142635 116.82300998 -86.40251831 109.04924379 -86.09831238 98.20970154 C-85.99604241 90.4860804 -86.10736649 82.76943583 -86.29656982 75.0480957 C-86.4619111 68.02117179 -86.54400815 60.9939173 -86.5885582 53.96529961 C-86.61656724 51.53048176 -86.68534667 49.09935463 -86.75881958 46.6655426 C-86.90461265 39.25927873 -86.94273659 32.97324134 -81.98143005 26.98112488 C-76.03895228 21.31870833 -70.99256662 20.74599412 -62.92578125 20.92578125 C-61.95905991 20.93144104 -60.99233856 20.93710083 -59.99632263 20.94293213 C-56.92932181 20.96520094 -53.86351864 21.01537976 -50.796875 21.06640625 C-48.70900133 21.08648352 -46.62110922 21.10473213 -44.53320312 21.12109375 C-39.43313708 21.16503466 -34.33395862 21.23399642 -29.234375 21.31640625 C-29.24734619 20.20724854 -29.26031738 19.09809082 -29.27368164 17.95532227 C-29.21376726 12.4085901 -27.33643911 8.52357356 -23.515625 4.51171875 C-16.91472605 -1.33399261 -8.57267101 -2.62275774 0 0 Z " fill="#DDEDFE" transform="translate(152.234375,0.68359375)"/>
<path d="M0 0 C4.86030233 2.59144438 8.24811508 6.57136702 10.88354492 11.33862305 C12.2268143 15.87331902 12.07069885 20.31810537 12.06640625 25.0234375 C12.07069138 26.06279953 12.0749765 27.10216156 12.07939148 28.17301941 C12.08512677 30.36932651 12.08564095 32.5656526 12.08129883 34.76196289 C12.07814601 38.10661612 12.10158395 41.45037837 12.12695312 44.79492188 C12.12922704 46.93359264 12.12992919 49.07226577 12.12890625 51.2109375 C12.138116 52.20390335 12.14732574 53.1968692 12.15681458 54.21992493 C12.11158484 61.07652607 11.45099229 67.09171833 6.8984375 72.55859375 C1.37403332 77.05120259 -1.89406009 79.31640625 -9.234375 79.31640625 C-9.234375 89.87640625 -9.234375 100.43640625 -9.234375 111.31640625 C-2.06979401 111.15935349 -2.06979401 111.15935349 5.09350586 110.95605469 C12.38172803 110.87616964 19.0016324 111.78980152 24.51147461 116.95214844 C24.92534424 117.40235352 25.33921387 117.85255859 25.765625 118.31640625 C26.425625 117.98640625 27.085625 117.65640625 27.765625 117.31640625 C31.63987065 116.9576798 33.91496406 116.74929896 37.203125 118.94140625 C39.23381155 122.02804981 39.20510593 123.67091335 38.765625 127.31640625 C36.82543945 129.45263672 36.82543945 129.45263672 34.31640625 131.55859375 C28.60909723 137.52852616 28.73806922 142.76209809 28.81445312 150.6015625 C28.8577528 152.21492488 28.90399955 153.82821075 28.953125 155.44140625 C29.01473348 158.63164007 29.05005735 161.82090425 29.05859375 165.01171875 C29.06080933 165.76168121 29.0630249 166.51164368 29.06530762 167.28433228 C28.96688778 174.35890588 27.43306483 178.64896642 22.390625 183.69140625 C15.75379363 187.79992091 9.45551356 187.56158513 1.890625 187.44140625 C-1.780625 187.40015625 -5.451875 187.35890625 -9.234375 187.31640625 C-9.234375 195.23640625 -9.234375 203.15640625 -9.234375 211.31640625 C-2.06979401 211.15935349 -2.06979401 211.15935349 5.09350586 210.95605469 C12.38172803 210.87616964 19.0016324 211.78980152 24.51147461 216.95214844 C24.92534424 217.40235352 25.33921387 217.85255859 25.765625 218.31640625 C26.425625 217.98640625 27.085625 217.65640625 27.765625 217.31640625 C31.63987065 216.9576798 33.91496406 216.74929896 37.203125 218.94140625 C39.23381155 222.02804981 39.20510593 223.67091335 38.765625 227.31640625 C36.82543945 229.45263672 36.82543945 229.45263672 34.31640625 231.55859375 C28.60909723 237.52852616 28.73806922 242.76209809 28.81445312 250.6015625 C28.8577528 252.21492488 28.90399955 253.82821075 28.953125 255.44140625 C29.01473348 258.63164007 29.05005735 261.82090425 29.05859375 265.01171875 C29.06080933 265.76168121 29.0630249 266.51164368 29.06530762 267.28433228 C28.96688778 274.35890588 27.43306483 278.64896642 22.390625 283.69140625 C15.75379363 287.79992091 9.45551356 287.56158513 1.890625 287.44140625 C-1.780625 287.40015625 -5.451875 287.35890625 -9.234375 287.31640625 C-9.234375 295.23640625 -9.234375 303.15640625 -9.234375 311.31640625 C-2.06979401 311.15935349 -2.06979401 311.15935349 5.09350586 310.95605469 C12.38172803 310.87616964 19.0016324 311.78980152 24.51147461 316.95214844 C24.92534424 317.40235352 25.33921387 317.85255859 25.765625 318.31640625 C26.425625 317.98640625 27.085625 317.65640625 27.765625 317.31640625 C31.63987065 316.9576798 33.91496406 316.74929896 37.203125 318.94140625 C39.23381155 322.02804981 39.20510593 323.67091335 38.765625 327.31640625 C36.82543945 329.45263672 36.82543945 329.45263672 34.31640625 331.55859375 C28.60909723 337.52852616 28.73806922 342.76209809 28.81445312 350.6015625 C28.8577528 352.21492488 28.90399955 353.82821075 28.953125 355.44140625 C29.01473348 358.63164007 29.05005735 361.82090425 29.05859375 365.01171875 C29.06080933 365.76168121 29.0630249 366.51164368 29.06530762 367.28433228 C28.96688778 374.35890588 27.43306483 378.64896642 22.390625 383.69140625 C15.75379363 387.79992091 9.45551356 387.56158513 1.890625 387.44140625 C-1.780625 387.40015625 -5.451875 387.35890625 -9.234375 387.31640625 C-9.234375 395.23640625 -9.234375 403.15640625 -9.234375 411.31640625 C-1.644375 411.31640625 5.945625 411.31640625 13.765625 411.31640625 C13.765625 411.64640625 13.765625 411.97640625 13.765625 412.31640625 C13.17982162 412.32005188 12.59401825 412.32369751 11.99046326 412.32745361 C5.87402166 412.36937774 -0.24167647 412.43879254 -6.35766602 412.52392578 C-8.63786368 412.55209036 -10.91815816 412.57332725 -13.19848633 412.58740234 C-16.48308718 412.60889373 -19.76652955 412.65557797 -23.05078125 412.70703125 C-24.57149986 412.70887421 -24.57149986 412.70887421 -26.12294006 412.71075439 C-32.34703066 412.83853648 -36.15961613 413.63292863 -41.234375 417.31640625 C-45.21058193 422.61801549 -45.40171916 427.69538406 -45.55078125 434.14453125 C-45.5819529 435.26803986 -45.5819529 435.26803986 -45.61375427 436.41424561 C-45.67894588 438.79820913 -45.73799283 441.18227937 -45.796875 443.56640625 C-45.84008916 445.18620879 -45.88370437 446.80600068 -45.92773438 448.42578125 C-46.03459596 452.38921457 -46.13594833 456.35275485 -46.234375 460.31640625 C-49.21225713 458.58705746 -51.97144339 456.84817993 -54.58203125 454.6015625 C-55.18128418 454.0864209 -55.78053711 453.5712793 -56.39794922 453.04052734 C-57.02459473 452.49219238 -57.65124023 451.94385742 -58.296875 451.37890625 C-58.95445801 450.80479004 -59.61204102 450.23067383 -60.28955078 449.63916016 C-70.17590174 440.92434777 -79.1149038 431.72487731 -87.234375 421.31640625 C-88.02328125 420.33285156 -88.8121875 419.34929687 -89.625 418.3359375 C-115.73335355 385.51445028 -133.00201304 345.77857816 -139.234375 304.31640625 C-139.41170166 303.18452881 -139.58902832 302.05265137 -139.77172852 300.88647461 C-141.39325877 289.50256727 -141.59262793 278.24021502 -141.546875 266.75390625 C-141.54471985 265.78085541 -141.5425647 264.80780457 -141.54034424 263.80526733 C-141.48934757 249.45854893 -141.14571917 235.4127528 -138.234375 221.31640625 C-138.03569824 220.33333496 -137.83702148 219.35026367 -137.63232422 218.33740234 C-131.24276238 187.61485746 -119.80096038 158.40350953 -102.57421875 132.0859375 C-102.09984375 131.34174561 -101.62546875 130.59755371 -101.13671875 129.83081055 C-99.559651 127.74633663 -98.14526481 126.29487527 -96.22265625 124.57739258 C-88.25142635 116.82300998 -86.40251831 109.04924379 -86.09831238 98.20970154 C-85.99604241 90.4860804 -86.10736649 82.76943583 -86.29656982 75.0480957 C-86.4619111 68.02117179 -86.54400815 60.9939173 -86.5885582 53.96529961 C-86.61656724 51.53048176 -86.68534667 49.09935463 -86.75881958 46.6655426 C-86.90461265 39.25927873 -86.94273659 32.97324134 -81.98143005 26.98112488 C-76.03895228 21.31870833 -70.99256662 20.74599412 -62.92578125 20.92578125 C-61.95905991 20.93144104 -60.99233856 20.93710083 -59.99632263 20.94293213 C-56.92932181 20.96520094 -53.86351864 21.01537976 -50.796875 21.06640625 C-48.70900133 21.08648352 -46.62110922 21.10473213 -44.53320312 21.12109375 C-39.43313708 21.16503466 -34.33395862 21.23399642 -29.234375 21.31640625 C-29.24734619 20.20724854 -29.26031738 19.09809082 -29.27368164 17.95532227 C-29.21376726 12.4085901 -27.33643911 8.52357356 -23.515625 4.51171875 C-16.91472605 -1.33399261 -8.57267101 -2.62275774 0 0 Z " fill="#D2DBFA" transform="translate(152.234375,0.68359375)"/>
<path d="M0 0 C6.10577339 4.67517105 11.34811112 10.33523562 13 18 C13.81764922 27.3554283 14.27647542 36.49330563 8.2890625 44.203125 C5.94804299 46.90095418 3.50310805 49.45144446 1 52 C0.17918945 52.84135498 0.17918945 52.84135498 -0.65820312 53.69970703 C-11.33603092 64.62290019 -11.33603092 64.62290019 -16.28466797 68.78466797 C-23.17097678 74.78969072 -29.52074645 81.3773237 -35.97265625 87.83984375 C-37.42404351 89.29055619 -38.87557908 90.74112025 -40.32725525 92.19154358 C-43.35887609 95.22169583 -46.38869567 98.25363453 -49.41723633 101.28686523 C-53.2825809 105.15790655 -57.15239825 109.0244404 -61.02358341 112.88963985 C-64.01867737 115.88110552 -67.01136729 118.87496711 -70.00335503 121.86953926 C-71.42865221 123.29549944 -72.85468128 124.7207285 -74.28148079 126.14518547 C-83.47192315 135.27520249 -83.47192315 135.27520249 -92.14878845 144.88630676 C-100.17657066 154.05234129 -108.88299364 162.66374392 -117.40403366 171.36697197 C-120.90369264 174.94320105 -124.38564471 178.53320123 -127.82763672 182.16503906 C-146.23690013 201.56227249 -163.82627298 215.54323927 -188.36871338 226.36447144 C-193.34771284 228.60700878 -198.14159824 231.1443472 -202.9375 233.75 C-204.36613382 234.50460241 -205.7956357 235.25756728 -207.2265625 236.0078125 C-209.09725985 236.99283827 -210.96547354 237.98141735 -212.82714844 238.98339844 C-214.48330652 239.8744685 -216.14766191 240.75025456 -217.8125 241.625 C-219.12154297 242.32496094 -219.12154297 242.32496094 -220.45703125 243.0390625 C-223.48858639 244.18462712 -225.78315488 244.28030601 -229 244 C-231.375 242.4375 -231.375 242.4375 -233 240 C-234.02462357 232.99379017 -230.91184605 228.06852045 -227.6875 222 C-226.57889649 219.85120494 -225.47217072 217.70144023 -224.3671875 215.55078125 C-223.80354492 214.46104004 -223.23990234 213.37129883 -222.65917969 212.24853516 C-220.11746 207.27206044 -217.70850518 202.23537336 -215.3125 197.1875 C-214.9105542 196.34380859 -214.5086084 195.50011719 -214.09448242 194.63085938 C-213.68818604 193.77685547 -213.28188965 192.92285156 -212.86328125 192.04296875 C-212.44172256 191.17469955 -212.02016388 190.30643036 -211.58583069 189.41184998 C-210.41794472 186.899191 -209.34202849 184.40521055 -208.30328369 181.84083557 C-202.84361247 168.81788625 -195.38573262 160.02614413 -185.30859375 150.296875 C-183.79149493 148.79595275 -182.27656776 147.29283264 -180.76368713 145.78765869 C-176.81866084 141.87475957 -172.84417936 137.99321185 -168.86254883 134.11761475 C-164.8190641 130.16989462 -160.8070749 126.19042392 -156.79101562 122.21484375 C-150.90878684 116.4036105 -145.01847794 110.60082917 -139.09936523 104.82714844 C-138.49706589 104.23696426 -137.89476654 103.64678009 -137.2742157 103.03871155 C-134.27928479 100.12570464 -131.23373369 97.31001091 -128.0708313 94.57975769 C-123.78565401 90.86282928 -119.7715416 86.91223055 -115.76733398 82.89672852 C-114.98737061 82.11851746 -114.20740723 81.3403064 -113.40380859 80.53851318 C-110.84873096 77.98780527 -108.29729174 75.43349411 -105.74609375 72.87890625 C-103.95840298 71.09188992 -102.17056386 69.30502199 -100.38258362 67.51829529 C-96.64478609 63.78196813 -92.9087432 60.04389533 -89.17407227 56.30444336 C-84.87475137 51.99968169 -80.57184027 47.69853392 -76.26704735 43.39924484 C-72.10220373 39.23951031 -67.94020494 35.07693987 -63.77937508 30.91319084 C-62.01914814 29.15229958 -60.25818568 27.39214323 -58.49645805 25.63275337 C-56.02962646 23.16847765 -53.56605074 20.70099078 -51.10327148 18.23266602 C-50.02375969 17.15619057 -50.02375969 17.15619057 -48.92243958 16.05796814 C-44.93814626 12.05714322 -41.15129481 7.9594332 -37.5130167 3.64024258 C-35.52322145 1.48313031 -33.48131362 0.25476809 -30.8125 -0.9375 C-29.99394531 -1.31777344 -29.17539062 -1.69804688 -28.33203125 -2.08984375 C-18.93999552 -5.75541213 -8.80476198 -4.83806715 0 0 Z " fill="#FEC839" transform="translate(488,91)"/>
<path d="M0 0 C0.33 0 0.66 0 1 0 C1 102.3 1 204.6 1 310 C-4.63593603 304.36406397 -4.63593603 304.36406397 -6.796875 301.3203125 C-7.27576172 300.64742188 -7.75464844 299.97453125 -8.24804688 299.28125 C-8.99151367 298.21390625 -8.99151367 298.21390625 -9.75 297.125 C-10.27658203 296.36960937 -10.80316406 295.61421875 -11.34570312 294.8359375 C-32.44471052 264.27698633 -46.40469816 229.75049884 -52 193 C-52.18328857 191.83702393 -52.36657715 190.67404785 -52.55541992 189.47583008 C-54.1748228 178.12707194 -54.35811157 166.88832207 -54.3125 155.4375 C-54.31034485 154.46444916 -54.3081897 153.49139832 -54.30596924 152.48886108 C-54.25497257 138.14214268 -53.91134417 124.09634655 -51 110 C-50.80132324 109.01692871 -50.60264648 108.03385742 -50.39794922 107.02099609 C-42.21047046 67.65363569 -25.38873676 31.25099177 0 0 Z " fill="#72C3F9" transform="translate(65,112)"/>
<path d="M0 0 C17.73496888 33.7856111 25.4561291 71.38218834 25.375 109.3125 C25.37445618 110.27433197 25.37391235 111.23616394 25.37335205 112.22714233 C25.31025546 136.60286943 22.07113503 159.62657395 15 183 C14.63962646 184.21864746 14.63962646 184.21864746 14.27197266 185.46191406 C7.53389487 207.78835462 -3.32643652 230.10938819 -17 249 C-17.53496094 249.74185547 -18.06992187 250.48371094 -18.62109375 251.24804688 C-21.99685359 255.89848739 -25.39662687 260.52289927 -29 265 C-29.33 265 -29.66 265 -30 265 C-30.61840152 235.1414028 -31.09500687 205.28302264 -31.3787639 175.41938357 C-31.41252552 171.87910654 -31.44747295 168.33884215 -31.4831543 164.79858398 C-31.49023668 164.09390005 -31.49731906 163.38921612 -31.50461606 162.66317812 C-31.62152384 151.31127177 -31.83405517 139.9631267 -32.08312549 128.61343839 C-32.33728909 116.93260569 -32.48592676 105.25371605 -32.54038936 93.57023269 C-32.57535623 87.02019849 -32.65640813 80.47863505 -32.85471153 73.93134117 C-34.15433628 29.35242412 -34.15433628 29.35242412 -22.13503987 15.57313782 C-7.35337385 0 -7.35337385 0 0 0 Z " fill="#73C3F8" transform="translate(476,157)"/>
<path d="M0 0 C0.99816238 -0.0127597 1.99632477 -0.02551941 3.0247345 -0.03866577 C4.63417183 -0.04200424 4.63417183 -0.04200424 6.27612305 -0.04541016 C7.94072823 -0.05539536 7.94072823 -0.05539536 9.63896179 -0.06558228 C11.98666731 -0.07570538 14.33440158 -0.0803994 16.68212891 -0.08007812 C20.2640766 -0.08444369 23.84478457 -0.12074779 27.42651367 -0.15869141 C29.70971259 -0.1645612 31.99291735 -0.1685295 34.27612305 -0.17041016 C35.34300858 -0.18478119 36.4098941 -0.19915222 37.5091095 -0.21395874 C44.92629947 -0.16866394 49.57865017 0.89383572 54.9753418 6.29052734 C55.6353418 5.96052734 56.2953418 5.63052734 56.9753418 5.29052734 C60.84958745 4.93180089 63.12468086 4.72342005 66.4128418 6.91552734 C68.44352835 10.00217091 68.41482273 11.64503445 67.9753418 15.29052734 C66.03515625 17.42675781 66.03515625 17.42675781 63.52612305 19.53271484 C57.81881402 25.50264725 57.94778602 30.73621918 58.02416992 38.57568359 C58.0674696 40.18904598 58.11371635 41.80233184 58.1628418 43.41552734 C58.22445027 46.60576081 58.25983697 49.79502523 58.26831055 52.98583984 C58.27039017 53.73584763 58.27246979 54.48585541 58.27461243 55.2585907 C58.19338744 61.03605864 57.29653903 64.59858143 53.9753418 69.29052734 C49.85318177 73.21160639 46.68893164 74.40098221 41.08007812 74.48339844 C39.58756279 74.50749283 39.58756279 74.50749283 38.06489563 74.53207397 C33.50958012 74.57667013 28.95440879 74.61760022 24.39892578 74.640625 C22.00038945 74.65716551 19.60190202 74.68443 17.20361328 74.72265625 C13.73794078 74.77758731 10.27342303 74.79932621 6.80737305 74.81396484 C5.74251175 74.83663422 4.67765045 74.85930359 3.58052063 74.88265991 C-3.19170967 74.86356449 -7.83652546 73.80547664 -13.0246582 69.29052734 C-16.2749665 64.9917325 -17.13977369 61.03011497 -17.18579102 55.72485352 C-17.19539856 54.82679489 -17.2050061 53.92873627 -17.21490479 53.00346375 C-17.21915466 52.03987442 -17.22340454 51.0762851 -17.2277832 50.08349609 C-17.23348328 49.08473953 -17.23918335 48.08598297 -17.24505615 47.05696106 C-17.25449549 44.94464168 -17.2610359 42.83230765 -17.26489258 40.7199707 C-17.27459085 37.50038756 -17.3056217 34.28144493 -17.3371582 31.06201172 C-17.34368947 29.00667696 -17.34893945 26.95133764 -17.3527832 24.89599609 C-17.36513 23.93847946 -17.37747681 22.98096283 -17.39019775 21.99443054 C-17.36660394 14.85979466 -16.39010433 10.01988826 -11.5871582 4.47802734 C-7.72590306 1.18183393 -5.08072826 0.04421555 0 0 Z " fill="#BEC8F7" transform="translate(123.024658203125,312.70947265625)"/>
<path d="M0 0 C0.99816238 -0.0127597 1.99632477 -0.02551941 3.0247345 -0.03866577 C4.63417183 -0.04200424 4.63417183 -0.04200424 6.27612305 -0.04541016 C7.94072823 -0.05539536 7.94072823 -0.05539536 9.63896179 -0.06558228 C11.98666731 -0.07570538 14.33440158 -0.0803994 16.68212891 -0.08007812 C20.2640766 -0.08444369 23.84478457 -0.12074779 27.42651367 -0.15869141 C29.70971259 -0.1645612 31.99291735 -0.1685295 34.27612305 -0.17041016 C35.34300858 -0.18478119 36.4098941 -0.19915222 37.5091095 -0.21395874 C44.92629947 -0.16866394 49.57865017 0.89383572 54.9753418 6.29052734 C55.6353418 5.96052734 56.2953418 5.63052734 56.9753418 5.29052734 C60.84958745 4.93180089 63.12468086 4.72342005 66.4128418 6.91552734 C68.44352835 10.00217091 68.41482273 11.64503445 67.9753418 15.29052734 C66.03515625 17.42675781 66.03515625 17.42675781 63.52612305 19.53271484 C57.81881402 25.50264725 57.94778602 30.73621918 58.02416992 38.57568359 C58.0674696 40.18904598 58.11371635 41.80233184 58.1628418 43.41552734 C58.22445027 46.60576081 58.25983697 49.79502523 58.26831055 52.98583984 C58.27039017 53.73584763 58.27246979 54.48585541 58.27461243 55.2585907 C58.19338744 61.03605864 57.29653903 64.59858143 53.9753418 69.29052734 C49.85318177 73.21160639 46.68893164 74.40098221 41.08007812 74.48339844 C39.58756279 74.50749283 39.58756279 74.50749283 38.06489563 74.53207397 C33.50958012 74.57667013 28.95440879 74.61760022 24.39892578 74.640625 C22.00038945 74.65716551 19.60190202 74.68443 17.20361328 74.72265625 C13.73794078 74.77758731 10.27342303 74.79932621 6.80737305 74.81396484 C5.74251175 74.83663422 4.67765045 74.85930359 3.58052063 74.88265991 C-3.19170967 74.86356449 -7.83652546 73.80547664 -13.0246582 69.29052734 C-16.2749665 64.9917325 -17.13977369 61.03011497 -17.18579102 55.72485352 C-17.19539856 54.82679489 -17.2050061 53.92873627 -17.21490479 53.00346375 C-17.21915466 52.03987442 -17.22340454 51.0762851 -17.2277832 50.08349609 C-17.23348328 49.08473953 -17.23918335 48.08598297 -17.24505615 47.05696106 C-17.25449549 44.94464168 -17.2610359 42.83230765 -17.26489258 40.7199707 C-17.27459085 37.50038756 -17.3056217 34.28144493 -17.3371582 31.06201172 C-17.34368947 29.00667696 -17.34893945 26.95133764 -17.3527832 24.89599609 C-17.36513 23.93847946 -17.37747681 22.98096283 -17.39019775 21.99443054 C-17.36660394 14.85979466 -16.39010433 10.01988826 -11.5871582 4.47802734 C-7.72590306 1.18183393 -5.08072826 0.04421555 0 0 Z " fill="#BEC8F7" transform="translate(123.024658203125,212.70947265625)"/>
<path d="M0 0 C0.99816238 -0.0127597 1.99632477 -0.02551941 3.0247345 -0.03866577 C4.63417183 -0.04200424 4.63417183 -0.04200424 6.27612305 -0.04541016 C7.94072823 -0.05539536 7.94072823 -0.05539536 9.63896179 -0.06558228 C11.98666731 -0.07570538 14.33440158 -0.0803994 16.68212891 -0.08007812 C20.2640766 -0.08444369 23.84478457 -0.12074779 27.42651367 -0.15869141 C29.70971259 -0.1645612 31.99291735 -0.1685295 34.27612305 -0.17041016 C35.34300858 -0.18478119 36.4098941 -0.19915222 37.5091095 -0.21395874 C44.92629947 -0.16866394 49.57865017 0.89383572 54.9753418 6.29052734 C55.6353418 5.96052734 56.2953418 5.63052734 56.9753418 5.29052734 C60.84958745 4.93180089 63.12468086 4.72342005 66.4128418 6.91552734 C68.44352835 10.00217091 68.41482273 11.64503445 67.9753418 15.29052734 C66.03515625 17.42675781 66.03515625 17.42675781 63.52612305 19.53271484 C57.81881402 25.50264725 57.94778602 30.73621918 58.02416992 38.57568359 C58.0674696 40.18904598 58.11371635 41.80233184 58.1628418 43.41552734 C58.22445027 46.60576081 58.25983697 49.79502523 58.26831055 52.98583984 C58.27039017 53.73584763 58.27246979 54.48585541 58.27461243 55.2585907 C58.19338744 61.03605864 57.29653903 64.59858143 53.9753418 69.29052734 C49.85318177 73.21160639 46.68893164 74.40098221 41.08007812 74.48339844 C39.58756279 74.50749283 39.58756279 74.50749283 38.06489563 74.53207397 C33.50958012 74.57667013 28.95440879 74.61760022 24.39892578 74.640625 C22.00038945 74.65716551 19.60190202 74.68443 17.20361328 74.72265625 C13.73794078 74.77758731 10.27342303 74.79932621 6.80737305 74.81396484 C5.74251175 74.83663422 4.67765045 74.85930359 3.58052063 74.88265991 C-3.19170967 74.86356449 -7.83652546 73.80547664 -13.0246582 69.29052734 C-16.2749665 64.9917325 -17.13977369 61.03011497 -17.18579102 55.72485352 C-17.19539856 54.82679489 -17.2050061 53.92873627 -17.21490479 53.00346375 C-17.21915466 52.03987442 -17.22340454 51.0762851 -17.2277832 50.08349609 C-17.23348328 49.08473953 -17.23918335 48.08598297 -17.24505615 47.05696106 C-17.25449549 44.94464168 -17.2610359 42.83230765 -17.26489258 40.7199707 C-17.27459085 37.50038756 -17.3056217 34.28144493 -17.3371582 31.06201172 C-17.34368947 29.00667696 -17.34893945 26.95133764 -17.3527832 24.89599609 C-17.36513 23.93847946 -17.37747681 22.98096283 -17.39019775 21.99443054 C-17.36660394 14.85979466 -16.39010433 10.01988826 -11.5871582 4.47802734 C-7.72590306 1.18183393 -5.08072826 0.04421555 0 0 Z " fill="#BEC8F7" transform="translate(123.024658203125,112.70947265625)"/>
<path d="M0 0 C0.99816238 -0.0127597 1.99632477 -0.02551941 3.0247345 -0.03866577 C4.63417183 -0.04200424 4.63417183 -0.04200424 6.27612305 -0.04541016 C7.94072823 -0.05539536 7.94072823 -0.05539536 9.63896179 -0.06558228 C11.98666731 -0.07570538 14.33440158 -0.0803994 16.68212891 -0.08007812 C20.2640766 -0.08444369 23.84478457 -0.12074779 27.42651367 -0.15869141 C29.70971259 -0.1645612 31.99291735 -0.1685295 34.27612305 -0.17041016 C35.34300858 -0.18478119 36.4098941 -0.19915222 37.5091095 -0.21395874 C43.89156371 -0.1749828 47.80000653 0.46089186 52.9753418 4.29052734 C56.81147811 9.13617321 58.07786232 12.86465425 58.15234375 18.93212891 C58.1715966 20.30440643 58.1715966 20.30440643 58.1912384 21.70440674 C58.19862534 22.68673279 58.20601227 23.66905884 58.21362305 24.68115234 C58.22169479 25.69973328 58.22976654 26.71831421 58.23808289 27.76776123 C58.25190405 29.92295642 58.26263499 32.07817331 58.27050781 34.23339844 C58.28202661 36.43105508 58.30247668 38.62868378 58.33203125 40.82617188 C58.3748113 44.00719149 58.39089191 47.18738036 58.40112305 50.36865234 C58.41863113 51.34288147 58.43613922 52.3171106 58.45417786 53.32086182 C58.4306982 60.76435678 56.95023331 66.31563583 51.6003418 71.66552734 C43.76588622 76.51542842 33.88218343 76.93363814 24.9753418 75.29052734 C18.14468908 72.97823701 12.03348414 69.13734256 5.9753418 65.29052734 C4.90413086 64.61812012 4.90413086 64.61812012 3.8112793 63.93212891 C0.0525496 61.55124815 -3.69665181 59.15162299 -7.26708984 56.49389648 C-9.03359837 55.21453673 -9.03359837 55.21453673 -11.20214844 54.27270508 C-13.85362043 52.84291209 -15.27916334 51.76954276 -17.0246582 49.29052734 C-17.9688928 44.24311503 -17.96674529 39.38763995 -17.79296875 34.26879883 C-17.71248052 31.86266269 -17.69052063 29.461557 -17.67895508 27.05419922 C-17.65568883 25.50922194 -17.62910504 23.96429034 -17.59887695 22.41943359 C-17.58926437 21.70880264 -17.57965179 20.99817169 -17.56974792 20.26600647 C-17.33057426 13.9039306 -15.78428643 9.3208676 -11.5871582 4.47802734 C-7.72590306 1.18183393 -5.08072826 0.04421555 0 0 Z " fill="#BEC8F7" transform="translate(123.024658203125,412.70947265625)"/>
<path d="M0 0 C-5.59061578 6.81752491 -11.82740824 12.96112777 -18.06396484 19.17749023 C-19.28672415 20.39996712 -20.50926261 21.62266494 -21.7315979 22.8455658 C-25.03468749 26.14894119 -28.34084166 29.4492337 -31.64757109 32.74896502 C-35.10869191 36.2038162 -38.56696341 39.66151715 -42.02554321 43.11891174 C-48.56820926 49.65847511 -55.11341929 56.1954861 -61.65955603 62.73157507 C-69.11498019 70.17580505 -76.56755032 77.62288945 -84.01988673 85.07021034 C-99.34342639 100.38330967 -114.67053152 115.69283598 -130 131 C-132 130 -132 130 -133.125 127.0625 C-134.88286247 120.33556174 -134.12907047 113.77442283 -133 107 C-152.8 126.8 -172.6 146.6 -193 167 C-191.02 167.33 -189.04 167.66 -187 168 C-187 168.33 -187 168.66 -187 169 C-189.97 169 -192.94 169 -196 169 C-193.85771572 164.71543144 -191.18999656 161.91557631 -187.84130859 158.59838867 C-187.21013123 157.96531296 -186.57895386 157.33223724 -185.9286499 156.67997742 C-183.84010067 154.58772323 -181.74443421 152.50276005 -179.6484375 150.41796875 C-178.19035983 148.96108386 -176.73265237 147.50382837 -175.27529907 146.04621887 C-172.21672708 142.98921163 -169.15482426 139.93559375 -166.09033203 136.88452148 C-162.17823513 132.98934646 -158.2726844 129.08769 -154.36942101 125.18366528 C-151.35669232 122.17120981 -148.34135393 119.16137798 -145.32515335 116.15239906 C-143.88538266 114.71579372 -142.44620201 113.27859677 -141.00764084 111.84078026 C-138.98593777 109.82126742 -136.96096115 107.80509391 -134.93505859 105.78979492 C-134.34981415 105.20409729 -133.7645697 104.61839966 -133.16159058 104.01495361 C-130.21901246 101.09464943 -127.21967629 98.29144586 -124.08110046 95.58209229 C-119.79017488 91.86623794 -115.77409305 87.91478919 -111.76733398 83.89672852 C-110.98737061 83.11851746 -110.20740723 82.3403064 -109.40380859 81.53851318 C-106.84873096 78.98780527 -104.29729174 76.43349411 -101.74609375 73.87890625 C-99.95840298 72.09188992 -98.17056386 70.30502199 -96.38258362 68.51829529 C-92.64478609 64.78196813 -88.9087432 61.04389533 -85.17407227 57.30444336 C-80.87475137 52.99968169 -76.57184027 48.69853392 -72.26704735 44.39924484 C-68.10220373 40.23951031 -63.94020494 36.07693987 -59.77937508 31.91319084 C-58.01914814 30.15229958 -56.25818568 28.39214323 -54.49645805 26.63275337 C-52.02962646 24.16847765 -49.56605074 21.70099078 -47.10327148 19.23266602 C-46.02375969 18.15619057 -46.02375969 18.15619057 -44.92243958 17.05796814 C-40.93814626 13.05714322 -37.15129481 8.9594332 -33.5130167 4.64024258 C-31.52322145 2.48313031 -29.48131362 1.25476809 -26.8125 0.0625 C-25.99394531 -0.31777344 -25.17539062 -0.69804688 -24.33203125 -1.08984375 C-16.16464015 -4.277452 -7.74463594 -4.1304725 0 0 Z " fill="#FEDC3F" transform="translate(484,90)"/>
<path d="M0 0 C0.99 0.33 1.98 0.66 3 1 C5.34195547 8.0258664 5.40730082 19.42725515 2.2109375 26.171875 C-0.69776626 30.56307938 -4.32037895 34.25357019 -8 38 C-8.82081055 38.84135498 -8.82081055 38.84135498 -9.65820312 39.69970703 C-20.33703414 50.62392647 -20.33703414 50.62392647 -25.28027344 54.78027344 C-32.19297921 60.80828966 -38.56632153 67.42290408 -45.04296875 73.91015625 C-46.4991472 75.36566002 -47.95547397 76.8210154 -49.41194153 78.27622986 C-52.45195455 81.31477458 -55.49016678 84.35510533 -58.52709961 87.39672852 C-62.4105722 91.28590805 -66.29853119 95.17056674 -70.18784618 99.05390263 C-73.19143343 102.05386949 -76.19262643 105.05622247 -79.19310951 108.05929375 C-80.62564108 109.49248996 -82.05890914 110.92495044 -83.4929409 112.35664558 C-85.49797407 114.35912681 -87.49975298 116.36480704 -89.50073242 118.37133789 C-90.08733643 118.95591766 -90.67394043 119.54049744 -91.27832031 120.14279175 C-93.91176995 122.78972711 -96.40526649 125.44936739 -98.74214172 128.36351013 C-101.25647429 131.29948375 -102.24849199 131.70382831 -106 132 C-106.99 132.33 -107.98 132.66 -109 133 C-111.26845929 133.12117236 -113.54083894 133.17540383 -115.8125 133.1875 C-117.61654297 133.20876953 -117.61654297 133.20876953 -119.45703125 133.23046875 C-122.98083425 133.00124672 -125.72129528 132.27030979 -129 131 C-127.42622697 127.15874839 -124.84137044 124.56622533 -121.93807983 121.6975708 C-121.41775983 121.17554195 -120.89743984 120.6535131 -120.36135256 120.1156652 C-118.61720154 118.36822077 -116.866 116.62801915 -115.11474609 114.88769531 C-113.86280592 113.63631929 -112.61130599 112.38450269 -111.36021423 111.13227844 C-107.96201266 107.73350249 -104.55767499 104.34093305 -101.15221739 100.94942951 C-97.59454157 97.40424675 -94.04251966 93.85340852 -90.48989868 90.30316162 C-83.76138913 83.58087102 -77.02779705 76.86369541 -70.29237235 70.14833426 C-62.62468759 62.50299556 -54.96267352 54.85198462 -47.30113482 47.20048761 C-31.54039965 31.46066385 -15.77254276 15.72799103 0 0 Z " fill="#FEDC40" transform="translate(497,105)"/>
<path d="M0 0 C12.34471564 0.35575549 22.85915593 2.14421344 32 11 C38.6225875 18.82792551 42.88012537 27.03629696 43.6015625 37.3203125 C43.67971191 38.38781738 43.75786133 39.45532227 43.83837891 40.55517578 C43.89171387 41.36196777 43.94504883 42.16875977 44 43 C43.03924561 43.49290527 42.07849121 43.98581055 41.08862305 44.49365234 C36.62095672 46.78621787 32.15404681 49.0802542 27.6875 51.375 C26.88545135 51.78705688 26.08340271 52.19911377 25.25704956 52.62365723 C16.17124266 57.29309012 7.09232489 61.97290648 -1.9375 66.75 C-3.36712059 67.50273126 -4.79680395 68.25534333 -6.2265625 69.0078125 C-8.09725985 69.99283827 -9.96547354 70.98141735 -11.82714844 71.98339844 C-13.48330652 72.8744685 -15.14766191 73.75025456 -16.8125 74.625 C-18.12154297 75.32496094 -18.12154297 75.32496094 -19.45703125 76.0390625 C-22.48858639 77.18462712 -24.78315488 77.28030601 -28 77 C-30.375 75.4375 -30.375 75.4375 -32 73 C-33.02462357 65.99379017 -29.91184605 61.06852045 -26.6875 55 C-25.57889649 52.85120494 -24.47217072 50.70144023 -23.3671875 48.55078125 C-22.80354492 47.46104004 -22.23990234 46.37129883 -21.65917969 45.24853516 C-19.11746085 40.2720621 -16.70842281 35.23540826 -14.3125 30.1875 C-13.86632324 29.250271 -13.42014648 28.31304199 -12.96044922 27.34741211 C-11.63785436 24.56609426 -10.31853407 21.78324492 -9 19 C-8.10420164 17.11196257 -7.20836872 15.22394154 -6.3125 13.3359375 C-4.20509269 8.89215309 -2.10138529 4.44663505 0 0 Z " fill="#FAB989" transform="translate(287,258)"/>
<path d="M0 0 C0.79759371 -0.0055344 1.59518742 -0.01106879 2.41695064 -0.0167709 C5.09264961 -0.03039687 7.76741893 -0.01539808 10.44309998 -0.00050354 C12.3599843 -0.00428598 14.2768659 -0.00978541 16.19374084 -0.01687622 C21.40233285 -0.03085687 26.61059551 -0.01964312 31.81916928 -0.00316501 C37.26436716 0.01066618 42.70954554 0.0042277 48.15475464 0.0007019 C57.29861268 -0.00200152 66.44233955 0.01148755 75.58616638 0.03465271 C86.16651738 0.06127118 96.74664913 0.0630075 107.32702214 0.05126435 C117.49532545 0.04049614 127.66354924 0.0466656 137.83184624 0.06081963 C142.16394359 0.06658694 146.4959829 0.06649092 150.82808113 0.06175423 C155.92607778 0.05699208 161.02383343 0.06705444 166.12178421 0.08870888 C167.99592336 0.09428704 169.87008562 0.09473266 171.74422646 0.08975601 C174.29622568 0.08382776 176.84748192 0.09626038 179.39941406 0.11352539 C180.14668198 0.10751535 180.89394989 0.1015053 181.66386229 0.09531313 C184.55426587 0.13104242 186.63188406 0.17102878 189.08851528 1.7793417 C190.57179548 4.21706869 190.60041121 6.66444388 190.72996521 9.46604919 C189.78409429 12.70814623 187.93295469 13.69761221 185.13621521 15.50120544 C182.39002117 15.88230414 180.05069646 16.03451205 177.3107605 15.99568176 C176.52935214 16.00051059 175.74794377 16.00533942 174.94285637 16.01031458 C172.32785003 16.02157479 169.71382393 16.00427511 167.09886169 15.98704529 C165.22286209 15.98919141 163.34686379 15.99306949 161.47087097 15.99855042 C156.37795474 16.00824526 151.28538899 15.99293908 146.19251513 15.97264433 C140.86524525 15.95508072 135.5379863 15.95859826 130.21069336 15.95936584 C121.26531609 15.95749274 112.32007451 15.9401267 103.3747406 15.91282654 C93.02788295 15.88136607 82.68117387 15.87083068 72.33427185 15.87229764 C62.38542519 15.87351775 52.43662698 15.86331162 42.48779488 15.84671402 C38.2514362 15.8396474 34.01509467 15.83598739 29.77873039 15.83492661 C24.79238308 15.83291953 19.8061608 15.82072465 14.81985474 15.80059433 C12.98806079 15.79474621 11.15625245 15.79229322 9.32444954 15.7934494 C6.82772829 15.79442904 4.33135861 15.78313727 1.83468628 15.76863098 C1.10657712 15.77172819 0.37846796 15.77482539 -0.37170511 15.77801645 C-4.00941436 15.74301366 -6.84867695 15.64863696 -9.86378479 13.50120544 C-12.19127824 10.00996527 -12.36677795 8.60898294 -11.86378479 4.50120544 C-8.63952257 -0.04506757 -5.19551132 -0.06698044 0 0 Z " fill="#BFC9F7" transform="translate(222.86378479003906,362.49879455566406)"/>
<path d="M0 0 C4.86030233 2.59144438 8.24811508 6.57136702 10.88354492 11.33862305 C12.2268143 15.87331902 12.07069885 20.31810537 12.06640625 25.0234375 C12.07069138 26.06279953 12.0749765 27.10216156 12.07939148 28.17301941 C12.08512677 30.36932651 12.08564095 32.5656526 12.08129883 34.76196289 C12.07814601 38.10661612 12.10158395 41.45037837 12.12695312 44.79492188 C12.12922704 46.93359264 12.12992919 49.07226577 12.12890625 51.2109375 C12.138116 52.20390335 12.14732574 53.1968692 12.15681458 54.21992493 C12.11158484 61.07652607 11.45099229 67.09171833 6.8984375 72.55859375 C0.67664226 77.61834163 -3.59541621 79.83048236 -11.7421875 79.625 C-18.09986913 78.83776356 -21.92516112 74.97253846 -25.97265625 70.29296875 C-29.73360387 64.4012056 -29.55520905 58.25626495 -29.5703125 51.51171875 C-29.5769693 50.47377167 -29.5836261 49.43582458 -29.59048462 48.36642456 C-29.60058547 46.17610439 -29.60530244 43.9857536 -29.60498047 41.79541016 C-29.60935137 38.4594409 -29.64569326 35.1247978 -29.68359375 31.7890625 C-29.68946302 29.65495241 -29.69343167 27.52083608 -29.6953125 25.38671875 C-29.71686905 23.90197556 -29.71686905 23.90197556 -29.73886108 22.38723755 C-29.69165952 15.16864313 -28.25547346 9.74031783 -23.41796875 4.2578125 C-22.84175781 3.80277344 -22.26554687 3.34773437 -21.671875 2.87890625 C-21.09308594 2.40582031 -20.51429688 1.93273437 -19.91796875 1.4453125 C-14.61272804 -2.11202988 -5.92664147 -1.81322073 0 0 Z " fill="#543E5B" transform="translate(377.234375,0.68359375)"/>
<path d="M0 0 C4.86030233 2.59144438 8.24811508 6.57136702 10.88354492 11.33862305 C12.2268143 15.87331902 12.07069885 20.31810537 12.06640625 25.0234375 C12.07069138 26.06279953 12.0749765 27.10216156 12.07939148 28.17301941 C12.08512677 30.36932651 12.08564095 32.5656526 12.08129883 34.76196289 C12.07814601 38.10661612 12.10158395 41.45037837 12.12695312 44.79492188 C12.12922704 46.93359264 12.12992919 49.07226577 12.12890625 51.2109375 C12.138116 52.20390335 12.14732574 53.1968692 12.15681458 54.21992493 C12.11158484 61.07652607 11.45099229 67.09171833 6.8984375 72.55859375 C0.67664226 77.61834163 -3.59541621 79.83048236 -11.7421875 79.625 C-18.09986913 78.83776356 -21.92516112 74.97253846 -25.97265625 70.29296875 C-29.73360387 64.4012056 -29.55520905 58.25626495 -29.5703125 51.51171875 C-29.5769693 50.47377167 -29.5836261 49.43582458 -29.59048462 48.36642456 C-29.60058547 46.17610439 -29.60530244 43.9857536 -29.60498047 41.79541016 C-29.60935137 38.4594409 -29.64569326 35.1247978 -29.68359375 31.7890625 C-29.68946302 29.65495241 -29.69343167 27.52083608 -29.6953125 25.38671875 C-29.71686905 23.90197556 -29.71686905 23.90197556 -29.73886108 22.38723755 C-29.69165952 15.16864313 -28.25547346 9.74031783 -23.41796875 4.2578125 C-22.84175781 3.80277344 -22.26554687 3.34773437 -21.671875 2.87890625 C-21.09308594 2.40582031 -20.51429688 1.93273437 -19.91796875 1.4453125 C-14.61272804 -2.11202988 -5.92664147 -1.81322073 0 0 Z " fill="#543E5B" transform="translate(302.234375,0.68359375)"/>
<path d="M0 0 C4.86030233 2.59144438 8.24811508 6.57136702 10.88354492 11.33862305 C12.2268143 15.87331902 12.07069885 20.31810537 12.06640625 25.0234375 C12.07069138 26.06279953 12.0749765 27.10216156 12.07939148 28.17301941 C12.08512677 30.36932651 12.08564095 32.5656526 12.08129883 34.76196289 C12.07814601 38.10661612 12.10158395 41.45037837 12.12695312 44.79492188 C12.12922704 46.93359264 12.12992919 49.07226577 12.12890625 51.2109375 C12.138116 52.20390335 12.14732574 53.1968692 12.15681458 54.21992493 C12.11158484 61.07652607 11.45099229 67.09171833 6.8984375 72.55859375 C0.67664226 77.61834163 -3.59541621 79.83048236 -11.7421875 79.625 C-18.09986913 78.83776356 -21.92516112 74.97253846 -25.97265625 70.29296875 C-29.73360387 64.4012056 -29.55520905 58.25626495 -29.5703125 51.51171875 C-29.5769693 50.47377167 -29.5836261 49.43582458 -29.59048462 48.36642456 C-29.60058547 46.17610439 -29.60530244 43.9857536 -29.60498047 41.79541016 C-29.60935137 38.4594409 -29.64569326 35.1247978 -29.68359375 31.7890625 C-29.68946302 29.65495241 -29.69343167 27.52083608 -29.6953125 25.38671875 C-29.71686905 23.90197556 -29.71686905 23.90197556 -29.73886108 22.38723755 C-29.69165952 15.16864313 -28.25547346 9.74031783 -23.41796875 4.2578125 C-22.84175781 3.80277344 -22.26554688 3.34773437 -21.671875 2.87890625 C-21.09308594 2.40582031 -20.51429688 1.93273437 -19.91796875 1.4453125 C-14.61272804 -2.11202988 -5.92664147 -1.81322073 0 0 Z " fill="#543E5B" transform="translate(227.234375,0.68359375)"/>
<path d="M0 0 C4.86030233 2.59144438 8.24811508 6.57136702 10.88354492 11.33862305 C12.2268143 15.87331902 12.07069885 20.31810537 12.06640625 25.0234375 C12.07069138 26.06279953 12.0749765 27.10216156 12.07939148 28.17301941 C12.08512677 30.36932651 12.08564095 32.5656526 12.08129883 34.76196289 C12.07814601 38.10661612 12.10158395 41.45037837 12.12695312 44.79492188 C12.12922704 46.93359264 12.12992919 49.07226577 12.12890625 51.2109375 C12.138116 52.20390335 12.14732574 53.1968692 12.15681458 54.21992493 C12.11158484 61.07652607 11.45099229 67.09171833 6.8984375 72.55859375 C0.67664226 77.61834163 -3.59541621 79.83048236 -11.7421875 79.625 C-18.09986913 78.83776356 -21.92516112 74.97253846 -25.97265625 70.29296875 C-29.73360387 64.4012056 -29.55520905 58.25626495 -29.5703125 51.51171875 C-29.5769693 50.47377167 -29.5836261 49.43582458 -29.59048462 48.36642456 C-29.60058547 46.17610439 -29.60530244 43.9857536 -29.60498047 41.79541016 C-29.60935137 38.4594409 -29.64569326 35.1247978 -29.68359375 31.7890625 C-29.68946302 29.65495241 -29.69343167 27.52083608 -29.6953125 25.38671875 C-29.71686905 23.90197556 -29.71686905 23.90197556 -29.73886108 22.38723755 C-29.69165952 15.16864313 -28.25547346 9.74031783 -23.41796875 4.2578125 C-22.84175781 3.80277344 -22.26554688 3.34773437 -21.671875 2.87890625 C-21.09308594 2.40582031 -20.51429688 1.93273437 -19.91796875 1.4453125 C-14.61272804 -2.11202988 -5.92664147 -1.81322073 0 0 Z " fill="#543E5B" transform="translate(152.234375,0.68359375)"/>
<path d="M0 0 C0.76704199 -0.0034177 1.53408398 -0.0068354 2.32436967 -0.01035666 C4.8965777 -0.01694939 7.46774396 0.00506265 10.03985596 0.0269165 C11.88278682 0.02804468 13.72571948 0.0274117 15.56864929 0.02514648 C20.57460817 0.02399726 25.58018487 0.04754034 30.5860548 0.07544231 C35.81642413 0.10042123 41.0468019 0.1027952 46.27722168 0.10754395 C56.18301916 0.11998404 66.08864039 0.15281969 75.99436021 0.1929419 C87.27111802 0.23762741 98.54788418 0.25963856 109.82470846 0.27972364 C133.02314967 0.32155137 156.22143435 0.39192356 179.41973877 0.48101807 C178.32083446 3.777731 177.91541622 4.10111028 175.14630127 5.89117432 C174.48630127 6.32365479 173.82630127 6.75613525 173.14630127 7.20172119 C172.10602783 7.86591064 172.10602783 7.86591064 171.04473877 8.54351807 C170.35895752 8.99017822 169.67317627 9.43683838 168.96661377 9.89703369 C167.68727935 10.72959666 166.40576199 11.55882165 165.12139893 12.38360596 C163.54419293 13.40075674 161.98128559 14.43998686 160.41973877 15.48101807 C157.46928501 15.73270035 157.46928501 15.73270035 153.78388977 15.73498535 C152.76747372 15.73966532 152.76747372 15.73966532 151.730524 15.74443984 C149.45504738 15.7524309 147.17983662 15.74609197 144.90435791 15.73980713 C143.2749567 15.74251653 141.64555671 15.74607717 140.01615906 15.75042725 C135.5864269 15.75956032 131.1567877 15.75600303 126.72705388 15.74966908 C122.09510751 15.74461298 117.46316921 15.74929952 112.83122253 15.75244141 C105.05089893 15.75608255 97.27061326 15.75127844 89.49029541 15.74176025 C80.49200366 15.73087924 71.49380257 15.73439812 62.49551302 15.74541306 C54.77485155 15.75448627 47.05421738 15.75577094 39.3335523 15.75053573 C34.72018189 15.74741572 30.10685409 15.74700746 25.4934864 15.7536087 C21.15559073 15.75938187 16.817812 15.75538579 12.47992897 15.74382019 C10.88678939 15.74117329 9.29363999 15.74193922 7.7005043 15.74634552 C5.52772666 15.75180136 3.35532502 15.74496657 1.18257141 15.73498535 C-0.03398604 15.7342313 -1.2505435 15.73347725 -2.50396633 15.73270035 C-5.49429137 15.48805156 -7.13098856 15.16673468 -9.58026123 13.48101807 C-11.90775468 9.9897779 -12.08325439 8.58879556 -11.58026123 4.48101807 C-8.38925213 0.03048424 -5.12495308 -0.08340276 0 0 Z " fill="#BFC9F7" transform="translate(222.58026123046875,462.51898193359375)"/>
<path d="M0 0 C0.68537094 -0.0034177 1.37074189 -0.0068354 2.07688165 -0.01035666 C4.37274563 -0.0169438 6.66743961 0.00505242 8.9631958 0.0269165 C10.6090848 0.02804481 12.25497582 0.02741145 13.90086365 0.02514648 C18.3696686 0.02399774 22.83804503 0.04753281 27.3067503 0.07544231 C31.97657289 0.10042937 36.64640505 0.10279584 41.31628418 0.10754395 C50.15961286 0.11998166 59.002744 0.15281402 67.84598565 0.1929419 C77.9135736 0.23763487 87.98117093 0.25964043 98.04883337 0.27972364 C118.75900459 0.32154595 139.46899791 0.39191348 160.17901611 0.48101807 C157.56903653 6.55114667 152.74084235 11.91895981 147.17901611 15.48101807 C142.12881162 16.96305348 137.25530037 16.90336803 132.04058838 16.76153564 C130.5479301 16.76170732 129.05526586 16.76671295 127.56263733 16.77613831 C123.54106651 16.78775645 119.52306655 16.73169821 115.50218701 16.66221452 C111.28416216 16.60051956 107.06610802 16.60027762 102.84770203 16.59275818 C95.77367865 16.57165735 88.70097421 16.51049499 81.62750244 16.42071533 C71.65142074 16.29419184 61.67595788 16.24275522 51.69920266 16.20503008 C43.94368645 16.17278007 36.1882996 16.11873586 28.43292236 16.06304932 C27.1868313 16.05463622 27.1868313 16.05463622 25.91556668 16.04605317 C21.144591 16.01292993 16.37394725 15.96911593 11.60323906 15.90846062 C10.15848174 15.8914317 8.71368138 15.87769132 7.26885986 15.86746979 C5.2979894 15.85277667 3.32723396 15.8245144 1.35652161 15.79554749 C0.25359551 15.78310407 -0.84933058 15.77066065 -1.98567867 15.75784016 C-4.83408921 15.47973854 -6.45982256 15.06676411 -8.82098389 13.48101807 C-11.14847733 9.9897779 -11.32397705 8.58879556 -10.82098389 4.48101807 C-7.66111986 0.20486906 -5.16845076 -0.01552087 0 0 Z " fill="#BFC9F6" transform="translate(221.82098388671875,162.51898193359375)"/>
<path d="M0 0 C1.15245712 -0.0112793 2.30491425 -0.02255859 3.49229431 -0.03417969 C4.75268021 -0.02608276 6.0130661 -0.01798584 7.31164551 -0.00964355 C8.65548969 -0.01506506 9.99932793 -0.02218789 11.34315491 -0.03088379 C14.9899128 -0.04911718 18.63621798 -0.0420499 22.28298378 -0.02936745 C26.09947555 -0.01923971 29.91592858 -0.02863249 33.73242188 -0.03491211 C40.14155028 -0.0421892 46.55049431 -0.0325993 52.95959473 -0.0135498 C60.36922656 0.00821922 67.77841814 0.00116788 75.1880393 -0.02085543 C81.54995158 -0.03900778 87.91173133 -0.04156861 94.27366114 -0.03110075 C98.07329684 -0.02486485 101.87272562 -0.02403266 105.67234802 -0.0372467 C109.24463952 -0.04880238 112.81636348 -0.04078557 116.38859367 -0.01766968 C118.3248555 -0.00985817 120.26116533 -0.02174098 122.19740295 -0.03417969 C123.34986008 -0.02290039 124.5023172 -0.01162109 125.68969727 0 C126.69109993 0.0015081 127.69250259 0.0030162 128.72425079 0.00457001 C132.07970928 0.64908664 133.26960969 1.84152812 135.34484863 4.50793457 C135.84484863 7.50793457 135.84484863 7.50793457 135.34484863 10.50793457 C133.47774953 12.81069013 131.98837122 14.18617328 129.34484863 15.50793457 C127.59272994 15.60541711 125.83688758 15.63862724 124.08206177 15.64164734 C122.96601059 15.64591232 121.84995941 15.65017731 120.7000885 15.65457153 C119.46991501 15.65411835 118.23974152 15.65366516 116.97229004 15.65319824 C115.03565239 15.65823616 115.03565239 15.65823616 113.05989075 15.66337585 C109.51232836 15.67222631 105.96479009 15.67455442 102.41721773 15.67519164 C99.45746587 15.67614012 96.49771964 15.67981777 93.53796995 15.68336374 C86.55529901 15.69151249 79.57264097 15.69394761 72.58996582 15.6932373 C65.38385208 15.69263659 58.17781322 15.70318612 50.97171843 15.71898097 C44.78822369 15.7320521 38.60475343 15.73742137 32.42124498 15.7367819 C28.72670193 15.73652675 25.03222538 15.7393867 21.33769608 15.74995995 C17.21714401 15.76142989 13.09675987 15.75689673 8.97619629 15.75085449 C7.75007126 15.756474 6.52394623 15.76209351 5.26066589 15.7678833 C4.13897507 15.76368881 3.01728424 15.75949432 1.86160278 15.75517273 C0.39984839 15.75598988 0.39984839 15.75598988 -1.09143639 15.75682354 C-3.80796168 15.49309954 -5.38423663 15.00305642 -7.65515137 13.50793457 C-9.98264481 10.0166944 -10.15814453 8.61571206 -9.65515137 4.50793457 C-6.71368269 0.70397694 -4.73834443 0.0071359 0 0 Z " fill="#BFC9F7" transform="translate(220.6551513671875,422.4920654296875)"/>
<path d="M0 0 C1.15245712 -0.0112793 2.30491425 -0.02255859 3.49229431 -0.03417969 C4.75268021 -0.02608276 6.0130661 -0.01798584 7.31164551 -0.00964355 C8.65548969 -0.01506506 9.99932793 -0.02218789 11.34315491 -0.03088379 C14.9899128 -0.04911718 18.63621798 -0.0420499 22.28298378 -0.02936745 C26.09947555 -0.01923971 29.91592858 -0.02863249 33.73242188 -0.03491211 C40.14155028 -0.0421892 46.55049431 -0.0325993 52.95959473 -0.0135498 C60.36922656 0.00821922 67.77841814 0.00116788 75.1880393 -0.02085543 C81.54995158 -0.03900778 87.91173133 -0.04156861 94.27366114 -0.03110075 C98.07329684 -0.02486485 101.87272562 -0.02403266 105.67234802 -0.0372467 C109.24463952 -0.04880238 112.81636348 -0.04078557 116.38859367 -0.01766968 C118.3248555 -0.00985817 120.26116533 -0.02174098 122.19740295 -0.03417969 C123.34986008 -0.02290039 124.5023172 -0.01162109 125.68969727 0 C126.69109993 0.0015081 127.69250259 0.0030162 128.72425079 0.00457001 C132.07970928 0.64908664 133.26960969 1.84152812 135.34484863 4.50793457 C135.84484863 7.50793457 135.84484863 7.50793457 135.34484863 10.50793457 C133.47774953 12.81069013 131.98837122 14.18617328 129.34484863 15.50793457 C127.59272994 15.60541711 125.83688758 15.63862724 124.08206177 15.64164734 C122.96601059 15.64591232 121.84995941 15.65017731 120.7000885 15.65457153 C119.46991501 15.65411835 118.23974152 15.65366516 116.97229004 15.65319824 C115.03565239 15.65823616 115.03565239 15.65823616 113.05989075 15.66337585 C109.51232836 15.67222631 105.96479009 15.67455442 102.41721773 15.67519164 C99.45746587 15.67614012 96.49771964 15.67981777 93.53796995 15.68336374 C86.55529901 15.69151249 79.57264097 15.69394761 72.58996582 15.6932373 C65.38385208 15.69263659 58.17781322 15.70318612 50.97171843 15.71898097 C44.78822369 15.7320521 38.60475343 15.73742137 32.42124498 15.7367819 C28.72670193 15.73652675 25.03222538 15.7393867 21.33769608 15.74995995 C17.21714401 15.76142989 13.09675987 15.75689673 8.97619629 15.75085449 C7.75007126 15.756474 6.52394623 15.76209351 5.26066589 15.7678833 C4.13897507 15.76368881 3.01728424 15.75949432 1.86160278 15.75517273 C0.39984839 15.75598988 0.39984839 15.75598988 -1.09143639 15.75682354 C-3.80796168 15.49309954 -5.38423663 15.00305642 -7.65515137 13.50793457 C-9.98264481 10.0166944 -10.15814453 8.61571206 -9.65515137 4.50793457 C-6.71368269 0.70397694 -4.73834443 0.0071359 0 0 Z " fill="#BFC9F7" transform="translate(220.6551513671875,122.4920654296875)"/>
<path d="M0 0 C0.74168427 0.00444122 1.48336853 0.00888245 2.24752808 0.01345825 C3.50860886 0.01368484 3.50860886 0.01368484 4.79516602 0.01391602 C6.15773026 0.02939987 6.15773026 0.02939987 7.54782104 0.04519653 C8.47722504 0.04802643 9.40662903 0.05085632 10.36419678 0.05377197 C13.33959704 0.06498834 16.3146989 0.09009543 19.29000854 0.11550903 C21.30432712 0.12553696 23.31865041 0.13466313 25.33297729 0.14285278 C30.27710311 0.16493243 35.22100519 0.1994721 40.16500854 0.24050903 C41.29993134 2.51035462 41.29721358 3.77106003 41.31027222 6.29129028 C41.31665207 7.12555542 41.32303192 7.95982056 41.3296051 8.81936646 C41.33071793 9.72146851 41.33183075 10.62357056 41.33297729 11.55300903 C41.33796989 12.94 41.33796989 12.94 41.34306335 14.35501099 C41.34813075 16.31195579 41.35047174 18.26890924 41.35031128 20.2258606 C41.35249963 23.22828297 41.3706624 26.23033913 41.38961792 29.23269653 C41.39255144 31.13113277 41.39453651 33.02957076 41.39547729 34.92800903 C41.40266281 35.83011108 41.40984833 36.73221313 41.41725159 37.66165161 C41.41417496 38.49591675 41.41109833 39.33018188 41.40792847 40.18972778 C41.40935349 40.92537964 41.4107785 41.66103149 41.4122467 42.41897583 C41.16500854 44.24050903 41.16500854 44.24050903 39.16500854 46.24050903 C36.11912147 46.52357983 33.15901705 46.68708347 30.10641479 46.76004028 C29.20632187 46.78652145 28.30622894 46.81300262 27.37886047 46.84028625 C25.47331732 46.89301304 23.56762571 46.94058596 21.66183472 46.98342896 C18.74213243 47.05266227 15.82411143 47.14858841 12.90524292 47.24636841 C11.05567503 47.29422356 9.20606548 47.34050015 7.35641479 47.38504028 C6.48134781 47.41612381 5.60628082 47.44720734 4.70469666 47.47923279 C3.48344337 47.49992073 3.48344337 47.49992073 2.23751831 47.52102661 C1.52185196 47.53942093 0.80618561 47.55781525 0.0688324 47.57676697 C-2.47687629 47.12713779 -3.32841879 46.31933614 -4.83499146 44.24050903 C-5.17124939 42.29872131 -5.17124939 42.29872131 -5.11550903 40.07620239 C-5.10171707 39.24201279 -5.08792511 38.40782318 -5.07371521 37.5483551 C-5.04263168 36.65141434 -5.01154816 35.75447357 -4.97952271 34.83035278 C-4.95782516 33.90710709 -4.93612762 32.98386139 -4.91377258 32.03263855 C-4.86450278 30.08146572 -4.80769389 28.13047087 -4.743927 26.17971802 C-4.64776407 23.18649454 -4.57840707 20.19352453 -4.51272583 17.19949341 C-4.46158145 15.3055696 -4.4088993 13.41168655 -4.35452271 11.51785278 C-4.33356033 10.61888779 -4.31259796 9.71992279 -4.29100037 8.79371643 C-4.2614476 7.96267899 -4.23189484 7.13164154 -4.20144653 6.27542114 C-4.17907425 5.54278549 -4.15670197 4.81014984 -4.13365173 4.05531311 C-3.69879448 1.41291045 -2.66308639 0.34904595 0 0 Z " fill="#D2DBFA" transform="translate(124.83499145507813,426.7594909667969)"/>
<path d="M0 0 C0.90437805 0.00565979 1.8087561 0.01131958 2.74053955 0.01715088 C5.62444353 0.03951252 8.50709761 0.08970814 11.390625 0.140625 C13.34763829 0.16069029 15.30467108 0.17894101 17.26171875 0.1953125 C22.05516789 0.23937661 26.84768465 0.30840248 31.640625 0.390625 C31.60400391 2.40885417 31.56738281 4.42708333 31.53076172 6.4453125 C31.50298462 8.48943428 31.50298462 8.48943428 32.765625 10.390625 C35.65677933 11.93257398 37.35503523 11.77265416 40.640625 11.390625 C42.93812628 10.22379149 45.08484615 8.87689241 47.2784729 7.52516174 C62.37574194 -1.50220555 77.09096771 -1.06921393 94.04962158 -0.59783936 C97.04219287 -0.52901524 100.03386459 -0.51787035 103.0271244 -0.50783443 C105.92704194 -0.49511051 108.82631922 -0.4602186 111.72593307 -0.41720772 C113.10137173 -0.39703424 114.47687332 -0.38074255 115.85240555 -0.36851311 C117.75824608 -0.34570709 119.66365074 -0.292562 121.56884766 -0.23803711 C122.64832672 -0.2137413 123.72780579 -0.1894455 124.83999634 -0.16441345 C128.30832784 0.5229527 129.5527504 1.57077443 131.640625 4.390625 C131.5808043 7.800405 131.44990232 10.26238434 129.4279623 13.08123875 C126.93133475 14.91024427 125.18572263 14.77083835 122.10572815 14.77830505 C120.95464569 14.78820969 119.80356323 14.79811432 118.61759949 14.80831909 C117.35361832 14.80381744 116.08963715 14.7993158 114.78735352 14.79467773 C113.44365876 14.80037956 112.09996886 14.8073431 110.75628662 14.81547546 C107.10541605 14.83344351 103.45478533 14.83223168 99.80388379 14.82653308 C96.75708019 14.82344629 93.710323 14.82952801 90.663526 14.83557183 C83.47608431 14.84962756 76.28876145 14.84804725 69.10131836 14.83666992 C61.6843368 14.82518874 54.26771683 14.83926173 46.85078293 14.8660664 C40.48465697 14.88821276 34.11864459 14.89486317 27.75248283 14.88898998 C23.94946413 14.88561647 20.14667721 14.88806124 16.34369087 14.90524101 C12.76733254 14.92069128 9.19151034 14.91677671 5.61517334 14.89793587 C3.67650016 14.89248363 1.73780303 14.90677888 -0.20082092 14.92163086 C-1.35472321 14.91179672 -2.50862549 14.90196259 -3.69749451 14.89183044 C-4.70019599 14.89162116 -5.70289747 14.89141188 -6.73598385 14.89119625 C-10.09502109 14.25025581 -11.28307256 13.05958738 -13.359375 10.390625 C-13.94149885 6.89788189 -13.89324781 5.18909108 -11.91308594 2.22753906 C-8.07387062 -0.53405329 -4.61309611 -0.10869689 0 0 Z " fill="#BEC7F6" transform="translate(224.359375,322.609375)"/>
<path d="M0 0 C1.04421616 -0.00058411 2.08843231 -0.00116821 3.16429138 -0.00177002 C6.61670136 0.00101729 10.06824861 0.03214104 13.52050781 0.06347656 C15.91375253 0.07093662 18.30700335 0.07663066 20.70025635 0.08062744 C27.00015113 0.09590212 33.2996772 0.13520033 39.59942627 0.17944336 C46.02749646 0.22035617 52.45562621 0.23862996 58.88378906 0.25878906 C71.49722764 0.30169231 84.11041062 0.36919771 96.72363281 0.45410156 C96.12773283 1.13577361 96.12773283 1.13577361 95.51979446 1.83121681 C92.14696993 5.71368503 92.14696993 5.71368503 89.11004639 9.85775757 C86.81001613 12.94155429 84.61546436 15.03451398 80.76063538 15.88947296 C74.58717976 16.62494435 68.3803447 16.42138033 62.17675781 16.30566406 C60.15754487 16.29580805 58.13831359 16.28921563 56.11907959 16.28573608 C51.89893701 16.27049381 47.68016043 16.22948805 43.46044922 16.16748047 C38.05099012 16.08812909 32.6424159 16.0522263 27.23244095 16.03286171 C22.06792688 16.01292496 16.90362822 15.97317103 11.73925781 15.93066406 C10.75440651 15.92387257 9.76955521 15.91708107 8.75485992 15.91008377 C5.9710778 15.88693481 3.18785404 15.84989942 0.40429688 15.80810547 C-0.41967087 15.80272766 -1.24363861 15.79734985 -2.09257507 15.79180908 C-9.28602078 15.65629152 -9.28602078 15.65629152 -12.27636719 13.45410156 C-14.60386063 9.96286139 -14.77936035 8.56187905 -14.27636719 4.45410156 C-10.81593546 -0.96523822 -5.78100057 -0.08430497 0 0 Z " fill="#BEC9F7" transform="translate(225.2763671875,222.5458984375)"/>
<path d="M0 0 C5.83892392 3.11323156 9.68756068 8.11289316 11.765625 14.31640625 C12.00613403 16.73994446 12.00613403 16.73994446 11.99267578 19.2902832 C11.99252472 20.25090164 11.99237366 21.21152008 11.99221802 22.20124817 C11.98189545 23.22538315 11.97157288 24.24951813 11.9609375 25.3046875 C11.9581076 26.36302292 11.95527771 27.42135834 11.95236206 28.51176453 C11.9411879 31.88426123 11.91608807 35.25649012 11.890625 38.62890625 C11.88059164 40.91861595 11.87146641 43.20832982 11.86328125 45.49804688 C11.8412576 51.10425768 11.80780736 56.71031283 11.765625 62.31640625 C11.435625 62.31640625 11.105625 62.31640625 10.765625 62.31640625 C10.435625 51.09640625 10.105625 39.87640625 9.765625 28.31640625 C7.455625 30.95640625 5.145625 33.59640625 2.765625 36.31640625 C-2.85889374 39.58885352 -7.99500126 40.14478963 -14.2734375 38.91796875 C-20.96241603 36.92935351 -22.10989409 34.17295586 -27.234375 28.31640625 C-27.564375 39.53640625 -27.894375 50.75640625 -28.234375 62.31640625 C-28.564375 62.31640625 -28.894375 62.31640625 -29.234375 62.31640625 C-29.33619008 55.62708608 -29.40601415 48.93796738 -29.45410156 42.24804688 C-29.47415817 39.97453341 -29.50141038 37.70107115 -29.53613281 35.42773438 C-29.58491212 32.15091276 -29.60740397 28.874776 -29.625 25.59765625 C-29.64564514 24.58900513 -29.66629028 23.580354 -29.68756104 22.5411377 C-29.68985933 15.23530308 -28.31484847 9.80760952 -23.41796875 4.2578125 C-22.84175781 3.80277344 -22.26554687 3.34773437 -21.671875 2.87890625 C-21.09308594 2.40582031 -20.51429688 1.93273437 -19.91796875 1.4453125 C-14.61272804 -2.11202988 -5.92664147 -1.81322073 0 0 Z " fill="#6C5576" transform="translate(377.234375,0.68359375)"/>
<path d="M0 0 C5.83892392 3.11323156 9.68756068 8.11289316 11.765625 14.31640625 C12.00613403 16.73994446 12.00613403 16.73994446 11.99267578 19.2902832 C11.99252472 20.25090164 11.99237366 21.21152008 11.99221802 22.20124817 C11.98189545 23.22538315 11.97157288 24.24951813 11.9609375 25.3046875 C11.9581076 26.36302292 11.95527771 27.42135834 11.95236206 28.51176453 C11.9411879 31.88426123 11.91608807 35.25649012 11.890625 38.62890625 C11.88059164 40.91861595 11.87146641 43.20832982 11.86328125 45.49804688 C11.8412576 51.10425768 11.80780736 56.71031283 11.765625 62.31640625 C11.435625 62.31640625 11.105625 62.31640625 10.765625 62.31640625 C10.435625 51.09640625 10.105625 39.87640625 9.765625 28.31640625 C7.455625 30.95640625 5.145625 33.59640625 2.765625 36.31640625 C-2.85889374 39.58885352 -7.99500126 40.14478963 -14.2734375 38.91796875 C-20.96241603 36.92935351 -22.10989409 34.17295586 -27.234375 28.31640625 C-27.564375 39.53640625 -27.894375 50.75640625 -28.234375 62.31640625 C-28.564375 62.31640625 -28.894375 62.31640625 -29.234375 62.31640625 C-29.33619008 55.62708608 -29.40601415 48.93796738 -29.45410156 42.24804688 C-29.47415817 39.97453341 -29.50141038 37.70107115 -29.53613281 35.42773438 C-29.58491212 32.15091276 -29.60740397 28.874776 -29.625 25.59765625 C-29.64564514 24.58900513 -29.66629028 23.580354 -29.68756104 22.5411377 C-29.68985933 15.23530308 -28.31484847 9.80760952 -23.41796875 4.2578125 C-22.84175781 3.80277344 -22.26554687 3.34773437 -21.671875 2.87890625 C-21.09308594 2.40582031 -20.51429688 1.93273437 -19.91796875 1.4453125 C-14.61272804 -2.11202988 -5.92664147 -1.81322073 0 0 Z " fill="#6C5576" transform="translate(302.234375,0.68359375)"/>
<path d="M0 0 C5.83892392 3.11323156 9.68756068 8.11289316 11.765625 14.31640625 C12.00613403 16.73994446 12.00613403 16.73994446 11.99267578 19.2902832 C11.99252472 20.25090164 11.99237366 21.21152008 11.99221802 22.20124817 C11.98189545 23.22538315 11.97157288 24.24951813 11.9609375 25.3046875 C11.9581076 26.36302292 11.95527771 27.42135834 11.95236206 28.51176453 C11.9411879 31.88426123 11.91608807 35.25649012 11.890625 38.62890625 C11.88059164 40.91861595 11.87146641 43.20832982 11.86328125 45.49804688 C11.8412576 51.10425768 11.80780736 56.71031283 11.765625 62.31640625 C11.435625 62.31640625 11.105625 62.31640625 10.765625 62.31640625 C10.435625 51.09640625 10.105625 39.87640625 9.765625 28.31640625 C7.455625 30.95640625 5.145625 33.59640625 2.765625 36.31640625 C-2.85889374 39.58885352 -7.99500126 40.14478963 -14.2734375 38.91796875 C-20.96241603 36.92935351 -22.10989409 34.17295586 -27.234375 28.31640625 C-27.564375 39.53640625 -27.894375 50.75640625 -28.234375 62.31640625 C-28.564375 62.31640625 -28.894375 62.31640625 -29.234375 62.31640625 C-29.33619008 55.62708608 -29.40601415 48.93796738 -29.45410156 42.24804688 C-29.47415817 39.97453341 -29.50141038 37.70107115 -29.53613281 35.42773438 C-29.58491212 32.15091276 -29.60740397 28.874776 -29.625 25.59765625 C-29.64564514 24.58900513 -29.66629028 23.580354 -29.68756104 22.5411377 C-29.68985933 15.23530308 -28.31484847 9.80760952 -23.41796875 4.2578125 C-22.84175781 3.80277344 -22.26554688 3.34773437 -21.671875 2.87890625 C-21.09308594 2.40582031 -20.51429688 1.93273437 -19.91796875 1.4453125 C-14.61272804 -2.11202988 -5.92664147 -1.81322073 0 0 Z " fill="#6C5576" transform="translate(227.234375,0.68359375)"/>
<path d="M0 0 C5.83892392 3.11323156 9.68756068 8.11289316 11.765625 14.31640625 C12.00613403 16.73994446 12.00613403 16.73994446 11.99267578 19.2902832 C11.99252472 20.25090164 11.99237366 21.21152008 11.99221802 22.20124817 C11.98189545 23.22538315 11.97157288 24.24951813 11.9609375 25.3046875 C11.9581076 26.36302292 11.95527771 27.42135834 11.95236206 28.51176453 C11.9411879 31.88426123 11.91608807 35.25649012 11.890625 38.62890625 C11.88059164 40.91861595 11.87146641 43.20832982 11.86328125 45.49804688 C11.8412576 51.10425768 11.80780736 56.71031283 11.765625 62.31640625 C11.435625 62.31640625 11.105625 62.31640625 10.765625 62.31640625 C10.435625 51.09640625 10.105625 39.87640625 9.765625 28.31640625 C7.455625 30.95640625 5.145625 33.59640625 2.765625 36.31640625 C-2.85889374 39.58885352 -7.99500126 40.14478963 -14.2734375 38.91796875 C-20.96241603 36.92935351 -22.10989409 34.17295586 -27.234375 28.31640625 C-27.564375 39.53640625 -27.894375 50.75640625 -28.234375 62.31640625 C-28.564375 62.31640625 -28.894375 62.31640625 -29.234375 62.31640625 C-29.33619008 55.62708608 -29.40601415 48.93796738 -29.45410156 42.24804688 C-29.47415817 39.97453341 -29.50141038 37.70107115 -29.53613281 35.42773438 C-29.58491212 32.15091276 -29.60740397 28.874776 -29.625 25.59765625 C-29.64564514 24.58900513 -29.66629028 23.580354 -29.68756104 22.5411377 C-29.68985933 15.23530308 -28.31484847 9.80760952 -23.41796875 4.2578125 C-22.84175781 3.80277344 -22.26554688 3.34773437 -21.671875 2.87890625 C-21.09308594 2.40582031 -20.51429688 1.93273437 -19.91796875 1.4453125 C-14.61272804 -2.11202988 -5.92664147 -1.81322073 0 0 Z " fill="#6C5576" transform="translate(152.234375,0.68359375)"/>
<path d="M0 0 C0.74168427 0.00444122 1.48336853 0.00888245 2.24752808 0.01345825 C3.50860886 0.01368484 3.50860886 0.01368484 4.79516602 0.01391602 C6.15773026 0.02939987 6.15773026 0.02939987 7.54782104 0.04519653 C8.47722504 0.04802643 9.40662903 0.05085632 10.36419678 0.05377197 C13.33959704 0.06498834 16.3146989 0.09009543 19.29000854 0.11550903 C21.30432712 0.12553696 23.31865041 0.13466313 25.33297729 0.14285278 C30.27710311 0.16493243 35.22100519 0.1994721 40.16500854 0.24050903 C40.86886597 2.48904419 40.86886597 2.48904419 41.16500854 5.24050903 C39.8732605 7.29275513 39.8732605 7.29275513 37.90328979 9.26394653 C37.19623901 9.97421997 36.48918823 10.68449341 35.76071167 11.41629028 C34.63052612 12.50490356 34.63052612 12.50490356 33.47750854 13.61550903 C32.74338745 14.36445435 32.00926636 15.11339966 31.25289917 15.88504028 C27.12168119 19.95281589 27.12168119 19.95281589 25.16500854 21.24050903 C21.30916721 20.90502605 19.8419217 19.07975826 17.35250854 16.24050903 C14.50123007 13.26688092 13.43873233 12.31679271 9.35250854 11.17800903 C6.14214843 11.082813 6.14214843 11.082813 3.16500854 12.24050903 C2.58212081 16.23745353 2.26662848 19.74885911 4.40719604 23.30300903 C6.23732676 25.394587 8.15820525 27.3176266 10.16500854 29.24050903 C10.95649292 30.05390747 11.74797729 30.86730591 12.56344604 31.70535278 C17.41354028 37.17225126 17.41354028 37.17225126 23.96969604 39.57254028 C28.07132493 39.1463319 29.37941933 37.78841568 32.29000854 34.92800903 C35.14925559 32.16228876 37.92115022 29.55007636 41.16500854 27.24050903 C41.21881432 30.03243108 41.25858523 32.82332313 41.29000854 35.61550903 C41.30676636 36.40957153 41.32352417 37.20363403 41.34078979 38.02175903 C41.35836327 40.09542919 41.26836022 42.16934145 41.16500854 44.24050903 C38.47540671 46.93011087 36.39393336 46.49010066 32.73861694 46.5184021 C31.85838867 46.51435364 30.9781604 46.51030518 30.07125854 46.50613403 C28.71756165 46.50900421 28.71756165 46.50900421 27.33651733 46.51193237 C25.42664308 46.51329462 23.51675959 46.50959541 21.60690308 46.50125122 C18.67684205 46.49055224 15.74739417 46.50114514 12.81735229 46.51394653 C10.96448635 46.51262495 9.11162079 46.51006257 7.25875854 46.50613403 C5.93841614 46.51220673 5.93841614 46.51220673 4.59140015 46.5184021 C-1.60507486 46.47042563 -1.60507486 46.47042563 -3.83499146 44.24050903 C-4.08895874 42.41897583 -4.08895874 42.41897583 -4.09378052 40.18972778 C-4.10008484 39.35546265 -4.10638916 38.52119751 -4.11288452 37.66165161 C-4.10883606 36.75954956 -4.1047876 35.85744751 -4.10061646 34.92800903 C-4.10252991 34.00334839 -4.10444336 33.07868774 -4.10641479 32.12600708 C-4.10777712 30.16905445 -4.10407741 28.21209279 -4.09573364 26.25515747 C-4.0850348 23.25267314 -4.09562736 20.25078717 -4.10842896 17.24832153 C-4.10710737 15.34988271 -4.10454499 13.45144425 -4.10061646 11.55300903 C-4.10466492 10.65090698 -4.10871338 9.74880493 -4.11288452 8.81936646 C-4.1065802 7.98510132 -4.10027588 7.15083618 -4.09378052 6.29129028 C-4.09218933 5.55563843 -4.09059814 4.81998657 -4.08895874 4.06204224 C-3.71763383 1.39878326 -2.66598331 0.34942564 0 0 Z " fill="#D2DAF9" transform="translate(124.83499145507813,326.7594909667969)"/>
<path d="M0 0 C0.74168427 0.00444122 1.48336853 0.00888245 2.24752808 0.01345825 C3.50860886 0.01368484 3.50860886 0.01368484 4.79516602 0.01391602 C6.15773026 0.02939987 6.15773026 0.02939987 7.54782104 0.04519653 C8.47722504 0.04802643 9.40662903 0.05085632 10.36419678 0.05377197 C13.33959704 0.06498834 16.3146989 0.09009543 19.29000854 0.11550903 C21.30432712 0.12553696 23.31865041 0.13466313 25.33297729 0.14285278 C30.27710311 0.16493243 35.22100519 0.1994721 40.16500854 0.24050903 C40.86886597 2.48904419 40.86886597 2.48904419 41.16500854 5.24050903 C39.8732605 7.29275513 39.8732605 7.29275513 37.90328979 9.26394653 C37.19623901 9.97421997 36.48918823 10.68449341 35.76071167 11.41629028 C34.63052612 12.50490356 34.63052612 12.50490356 33.47750854 13.61550903 C32.74338745 14.36445435 32.00926636 15.11339966 31.25289917 15.88504028 C27.12168119 19.95281589 27.12168119 19.95281589 25.16500854 21.24050903 C21.30916721 20.90502605 19.8419217 19.07975826 17.35250854 16.24050903 C14.50123007 13.26688092 13.43873233 12.31679271 9.35250854 11.17800903 C6.14214843 11.082813 6.14214843 11.082813 3.16500854 12.24050903 C2.58212081 16.23745353 2.26662848 19.74885911 4.40719604 23.30300903 C6.23732676 25.394587 8.15820525 27.3176266 10.16500854 29.24050903 C10.95649292 30.05390747 11.74797729 30.86730591 12.56344604 31.70535278 C17.41354028 37.17225126 17.41354028 37.17225126 23.96969604 39.57254028 C28.07132493 39.1463319 29.37941933 37.78841568 32.29000854 34.92800903 C35.14925559 32.16228876 37.92115022 29.55007636 41.16500854 27.24050903 C41.21881432 30.03243108 41.25858523 32.82332313 41.29000854 35.61550903 C41.30676636 36.40957153 41.32352417 37.20363403 41.34078979 38.02175903 C41.35836327 40.09542919 41.26836022 42.16934145 41.16500854 44.24050903 C38.47540671 46.93011087 36.39393336 46.49010066 32.73861694 46.5184021 C31.85838867 46.51435364 30.9781604 46.51030518 30.07125854 46.50613403 C28.71756165 46.50900421 28.71756165 46.50900421 27.33651733 46.51193237 C25.42664308 46.51329462 23.51675959 46.50959541 21.60690308 46.50125122 C18.67684205 46.49055224 15.74739417 46.50114514 12.81735229 46.51394653 C10.96448635 46.51262495 9.11162079 46.51006257 7.25875854 46.50613403 C5.93841614 46.51220673 5.93841614 46.51220673 4.59140015 46.5184021 C-1.60507486 46.47042563 -1.60507486 46.47042563 -3.83499146 44.24050903 C-4.08895874 42.41897583 -4.08895874 42.41897583 -4.09378052 40.18972778 C-4.10008484 39.35546265 -4.10638916 38.52119751 -4.11288452 37.66165161 C-4.10883606 36.75954956 -4.1047876 35.85744751 -4.10061646 34.92800903 C-4.10252991 34.00334839 -4.10444336 33.07868774 -4.10641479 32.12600708 C-4.10777712 30.16905445 -4.10407741 28.21209279 -4.09573364 26.25515747 C-4.0850348 23.25267314 -4.09562736 20.25078717 -4.10842896 17.24832153 C-4.10710737 15.34988271 -4.10454499 13.45144425 -4.10061646 11.55300903 C-4.10466492 10.65090698 -4.10871338 9.74880493 -4.11288452 8.81936646 C-4.1065802 7.98510132 -4.10027588 7.15083618 -4.09378052 6.29129028 C-4.09218933 5.55563843 -4.09059814 4.81998657 -4.08895874 4.06204224 C-3.71763383 1.39878326 -2.66598331 0.34942564 0 0 Z " fill="#D2DAF9" transform="translate(124.83499145507813,226.75949096679688)"/>
<path d="M0 0 C0.74168427 0.00444122 1.48336853 0.00888245 2.24752808 0.01345825 C3.50860886 0.01368484 3.50860886 0.01368484 4.79516602 0.01391602 C6.15773026 0.02939987 6.15773026 0.02939987 7.54782104 0.04519653 C8.47722504 0.04802643 9.40662903 0.05085632 10.36419678 0.05377197 C13.33959704 0.06498834 16.3146989 0.09009543 19.29000854 0.11550903 C21.30432712 0.12553696 23.31865041 0.13466313 25.33297729 0.14285278 C30.27710311 0.16493243 35.22100519 0.1994721 40.16500854 0.24050903 C40.86886597 2.48904419 40.86886597 2.48904419 41.16500854 5.24050903 C39.8732605 7.29275513 39.8732605 7.29275513 37.90328979 9.26394653 C37.19623901 9.97421997 36.48918823 10.68449341 35.76071167 11.41629028 C34.63052612 12.50490356 34.63052612 12.50490356 33.47750854 13.61550903 C32.74338745 14.36445435 32.00926636 15.11339966 31.25289917 15.88504028 C27.12168119 19.95281589 27.12168119 19.95281589 25.16500854 21.24050903 C21.30916721 20.90502605 19.8419217 19.07975826 17.35250854 16.24050903 C14.50123007 13.26688092 13.43873233 12.31679271 9.35250854 11.17800903 C6.14214843 11.082813 6.14214843 11.082813 3.16500854 12.24050903 C2.58212081 16.23745353 2.26662848 19.74885911 4.40719604 23.30300903 C6.23732676 25.394587 8.15820525 27.3176266 10.16500854 29.24050903 C10.95649292 30.05390747 11.74797729 30.86730591 12.56344604 31.70535278 C17.41354028 37.17225126 17.41354028 37.17225126 23.96969604 39.57254028 C28.07132493 39.1463319 29.37941933 37.78841568 32.29000854 34.92800903 C35.14925559 32.16228876 37.92115022 29.55007636 41.16500854 27.24050903 C41.21881432 30.03243108 41.25858523 32.82332313 41.29000854 35.61550903 C41.30676636 36.40957153 41.32352417 37.20363403 41.34078979 38.02175903 C41.35836327 40.09542919 41.26836022 42.16934145 41.16500854 44.24050903 C38.47540671 46.93011087 36.39393336 46.49010066 32.73861694 46.5184021 C31.85838867 46.51435364 30.9781604 46.51030518 30.07125854 46.50613403 C28.71756165 46.50900421 28.71756165 46.50900421 27.33651733 46.51193237 C25.42664308 46.51329462 23.51675959 46.50959541 21.60690308 46.50125122 C18.67684205 46.49055224 15.74739417 46.50114514 12.81735229 46.51394653 C10.96448635 46.51262495 9.11162079 46.51006257 7.25875854 46.50613403 C5.93841614 46.51220673 5.93841614 46.51220673 4.59140015 46.5184021 C-1.60507486 46.47042563 -1.60507486 46.47042563 -3.83499146 44.24050903 C-4.08895874 42.41897583 -4.08895874 42.41897583 -4.09378052 40.18972778 C-4.10008484 39.35546265 -4.10638916 38.52119751 -4.11288452 37.66165161 C-4.10883606 36.75954956 -4.1047876 35.85744751 -4.10061646 34.92800903 C-4.10252991 34.00334839 -4.10444336 33.07868774 -4.10641479 32.12600708 C-4.10777712 30.16905445 -4.10407741 28.21209279 -4.09573364 26.25515747 C-4.0850348 23.25267314 -4.09562736 20.25078717 -4.10842896 17.24832153 C-4.10710737 15.34988271 -4.10454499 13.45144425 -4.10061646 11.55300903 C-4.10466492 10.65090698 -4.10871338 9.74880493 -4.11288452 8.81936646 C-4.1065802 7.98510132 -4.10027588 7.15083618 -4.09378052 6.29129028 C-4.09218933 5.55563843 -4.09059814 4.81998657 -4.08895874 4.06204224 C-3.71763383 1.39878326 -2.66598331 0.34942564 0 0 Z " fill="#D2DAF9" transform="translate(124.83499145507813,126.75949096679688)"/>
<path d="M0 0 C2.4375 1.625 2.4375 1.625 4 4 C4.39154751 7.45739396 4.43611876 9.32820744 2.51904297 12.28125 C1.80893066 13.0134375 1.09881836 13.745625 0.3671875 14.5 C-0.45555664 15.35980469 -1.27830078 16.21960938 -2.12597656 17.10546875 C-3.08307382 18.07121575 -4.04113706 19.03600607 -5 20 C-6.07569799 21.09976897 -7.15087097 22.20005164 -8.22558594 23.30078125 C-11.14782495 26.27999927 -14.09376873 29.23452028 -17.04980469 32.18017578 C-18.89637328 34.02131038 -20.73744027 35.86782862 -22.578125 37.71484375 C-23.75749141 38.89355052 -24.93716735 40.07194769 -26.1171875 41.25 C-26.66406219 41.79889893 -27.21093689 42.34779785 -27.77438354 42.91333008 C-33.60502998 48.70802953 -33.60502998 48.70802953 -37.6875 49.5625 C-42.79957415 48.69441194 -45.40124881 45.57354103 -49 42 C-49.89074219 41.13503906 -50.78148437 40.27007812 -51.69921875 39.37890625 C-59.87570476 31.34238862 -59.87570476 31.34238862 -60.3125 26.625 C-60 23 -60 23 -58.4375 20.5 C-55.78193417 18.86580564 -54.08763009 18.44291686 -51 19.03515625 C-47.28110716 20.82923151 -44.78129084 24.08376724 -42.11328125 27.1640625 C-41.41589844 27.76992188 -40.71851563 28.37578125 -40 29 C-35.36082436 28.46672305 -32.86895581 25.22902865 -29.7734375 22.03125 C-29.18454742 21.43574341 -28.59565735 20.84023682 -27.98892212 20.22668457 C-26.11038477 18.32475467 -24.2423045 16.412954 -22.375 14.5 C-20.49885848 12.58881285 -18.6206025 10.67977232 -16.73965454 8.77331543 C-15.57009607 7.58676088 -14.40363569 6.39714319 -13.24057007 5.20422363 C-8.68348938 0.56283795 -6.6178064 -0.57050055 0 0 Z " fill="#FD7489" transform="translate(187,318)"/>
<path d="M0 0 C2.4375 1.625 2.4375 1.625 4 4 C4.39154751 7.45739396 4.43611876 9.32820744 2.51904297 12.28125 C1.80893066 13.0134375 1.09881836 13.745625 0.3671875 14.5 C-0.45555664 15.35980469 -1.27830078 16.21960938 -2.12597656 17.10546875 C-3.08307382 18.07121575 -4.04113706 19.03600607 -5 20 C-6.07569799 21.09976897 -7.15087097 22.20005164 -8.22558594 23.30078125 C-11.14782495 26.27999927 -14.09376873 29.23452028 -17.04980469 32.18017578 C-18.89637328 34.02131038 -20.73744027 35.86782862 -22.578125 37.71484375 C-23.75749141 38.89355052 -24.93716735 40.07194769 -26.1171875 41.25 C-26.66406219 41.79889893 -27.21093689 42.34779785 -27.77438354 42.91333008 C-33.60502998 48.70802953 -33.60502998 48.70802953 -37.6875 49.5625 C-42.79957415 48.69441194 -45.40124881 45.57354103 -49 42 C-49.89074219 41.13503906 -50.78148437 40.27007812 -51.69921875 39.37890625 C-59.87570476 31.34238862 -59.87570476 31.34238862 -60.3125 26.625 C-60 23 -60 23 -58.4375 20.5 C-55.78193417 18.86580564 -54.08763009 18.44291686 -51 19.03515625 C-47.28110716 20.82923151 -44.78129084 24.08376724 -42.11328125 27.1640625 C-41.41589844 27.76992187 -40.71851563 28.37578125 -40 29 C-35.36082436 28.46672305 -32.86895581 25.22902865 -29.7734375 22.03125 C-29.18454742 21.43574341 -28.59565735 20.84023682 -27.98892212 20.22668457 C-26.11038477 18.32475467 -24.2423045 16.412954 -22.375 14.5 C-20.49885848 12.58881285 -18.6206025 10.67977232 -16.73965454 8.77331543 C-15.57009607 7.58676088 -14.40363569 6.39714319 -13.24057007 5.20422363 C-8.68348938 0.56283795 -6.6178064 -0.57050055 0 0 Z " fill="#FD7489" transform="translate(187,218)"/>
<path d="M0 0 C2.4375 1.625 2.4375 1.625 4 4 C4.39154751 7.45739396 4.43611876 9.32820744 2.51904297 12.28125 C1.80893066 13.0134375 1.09881836 13.745625 0.3671875 14.5 C-0.45555664 15.35980469 -1.27830078 16.21960938 -2.12597656 17.10546875 C-3.08307382 18.07121575 -4.04113706 19.03600607 -5 20 C-6.07569799 21.09976897 -7.15087097 22.20005164 -8.22558594 23.30078125 C-11.14782495 26.27999927 -14.09376873 29.23452028 -17.04980469 32.18017578 C-18.89637328 34.02131038 -20.73744027 35.86782862 -22.578125 37.71484375 C-23.75749141 38.89355052 -24.93716735 40.07194769 -26.1171875 41.25 C-26.66406219 41.79889893 -27.21093689 42.34779785 -27.77438354 42.91333008 C-33.60502998 48.70802953 -33.60502998 48.70802953 -37.6875 49.5625 C-42.79957415 48.69441194 -45.40124881 45.57354103 -49 42 C-49.89074219 41.13503906 -50.78148437 40.27007812 -51.69921875 39.37890625 C-59.87570476 31.34238862 -59.87570476 31.34238862 -60.3125 26.625 C-60 23 -60 23 -58.4375 20.5 C-55.78193417 18.86580564 -54.08763009 18.44291686 -51 19.03515625 C-47.28110716 20.82923151 -44.78129084 24.08376724 -42.11328125 27.1640625 C-41.41589844 27.76992187 -40.71851563 28.37578125 -40 29 C-35.36082436 28.46672305 -32.86895581 25.22902865 -29.7734375 22.03125 C-29.18454742 21.43574341 -28.59565735 20.84023682 -27.98892212 20.22668457 C-26.11038477 18.32475467 -24.2423045 16.412954 -22.375 14.5 C-20.49885848 12.58881285 -18.6206025 10.67977232 -16.73965454 8.77331543 C-15.57009607 7.58676088 -14.40363569 6.39714319 -13.24057007 5.20422363 C-8.68348938 0.56283795 -6.6178064 -0.57050055 0 0 Z " fill="#FD7489" transform="translate(187,118)"/>
<path d="M0 0 C1.26171875 1.57421875 1.26171875 1.57421875 2.6875 3.6875 C5.66345725 7.82444798 8.72475092 10.26384059 13 13 C8.5021065 18.39190397 3.73873458 23.39391684 -1.2421875 28.33984375 C-2.01055939 29.10680069 -2.77893127 29.87375763 -3.57058716 30.66395569 C-6.00303509 33.0908474 -8.43895322 35.51422127 -10.875 37.9375 C-12.53408552 39.59156486 -14.19294202 41.24585945 -15.8515625 42.90039062 C-19.89839709 46.93625433 -23.94807953 50.96924277 -28 55 C-31.71368887 53.76210371 -32.77354181 52.14775123 -35 49 C-35 48.34 -35 47.68 -35 47 C-35.5775 46.7525 -36.155 46.505 -36.75 46.25 C-39.30109062 44.83272743 -40.97973107 43.08817713 -43 41 C-37.69468166 35.64840978 -32.38401811 30.30217515 -27.06641579 24.96279144 C-24.59759911 22.48352257 -22.13068326 20.00242143 -19.66796875 17.51708984 C-16.83883425 14.66213549 -14.00170709 11.81524619 -11.1640625 8.96875 C-10.27756012 8.07192505 -9.39105774 7.1751001 -8.47769165 6.25109863 C-7.65699188 5.4302478 -6.83629211 4.60939697 -5.99072266 3.76367188 C-5.26680328 3.03531128 -4.54288391 2.30695068 -3.79702759 1.55651855 C-2 0 -2 0 0 0 Z " fill="#FEB332" transform="translate(354,222)"/>
<path d="M0 0 C7.26 0 14.52 0 22 0 C23.94863925 1.94863925 23.1291874 4.8980872 23.13894653 7.49121094 C23.1369223 8.40161133 23.13489807 9.31201172 23.1328125 10.25 C23.13424759 11.6426709 23.13424759 11.6426709 23.13571167 13.06347656 C23.13639355 15.03059965 23.13453872 16.99772496 23.13037109 18.96484375 C23.12502295 21.98703026 23.13031582 25.00906815 23.13671875 28.03125 C23.13605797 29.93750033 23.13477681 31.84375057 23.1328125 33.75 C23.13483673 34.66040039 23.13686096 35.57080078 23.13894653 36.50878906 C23.11494969 42.88505031 23.11494969 42.88505031 22 44 C14.74 44 7.48 44 0 44 C0 29.48 0 14.96 0 0 Z " fill="#DDEDFE" transform="translate(143,428)"/>
<path d="M0 0 C9.77097509 2.05704739 16.21256428 5.74505293 22 14 C24.05781843 18.01383666 25 21.43636913 25 26 C20.84521355 28.15179023 16.68264565 30.28739564 12.51220703 32.40869141 C11.09591623 33.13188308 9.68181321 33.85937659 8.27001953 34.59130859 C6.23515815 35.64530656 4.19281687 36.68335956 2.1484375 37.71875 C1.52319183 38.04685669 0.89794617 38.37496338 0.25375366 38.7130127 C-3.65885052 40.67079198 -6.63376683 41.48925801 -11 41 C-13.375 39.4375 -13.375 39.4375 -15 37 C-16.16805643 29.7168246 -12.50892537 24.23173516 -9.1875 17.9375 C-8.64029297 16.87466797 -8.09308594 15.81183594 -7.52929688 14.71679688 C-6.50666605 12.7322733 -5.478283 10.75069495 -4.44213867 8.77319336 C-2.92940049 5.86423906 -1.45947459 2.93598584 0 0 Z " fill="#6E5676" transform="translate(270,294)"/>
<path d="M0 0 C0.68333405 -0.00058411 1.36666809 -0.00116821 2.07070923 -0.00177002 C4.32207618 0.00100956 6.5721075 0.03209249 8.82324219 0.06347656 C10.38693519 0.07093948 11.95063756 0.07663217 13.51434326 0.08062744 C17.62453151 0.09588002 21.7341519 0.13515796 25.84411621 0.17944336 C30.04020506 0.22040455 34.23638592 0.23864023 38.43261719 0.25878906 C46.66204408 0.30165314 54.89100994 0.36989923 63.12011719 0.45410156 C61.97124606 4.066318 60.7367941 7.46185953 58.99511719 10.82910156 C58.64191406 11.51746094 58.28871094 12.20582031 57.92480469 12.91503906 C57.65925781 13.42292969 57.39371094 13.93082031 57.12011719 14.45410156 C48.84469423 14.54680513 40.56948841 14.61786772 32.29367447 14.66135025 C28.45080467 14.6822204 24.60829026 14.71052663 20.765625 14.75585938 C17.05680604 14.79933902 13.34832877 14.82324298 9.6392746 14.83361053 C8.22465384 14.84099824 6.81005166 14.855425 5.39557648 14.87702179 C3.41364296 14.90607772 1.43136519 14.90773564 -0.55078125 14.90820312 C-1.67885193 14.91708557 -2.80692261 14.92596802 -3.96917725 14.93511963 C-7.54645568 14.34394491 -8.71415287 13.31289095 -10.87988281 10.45410156 C-11.37988281 7.45410156 -11.37988281 7.45410156 -10.87988281 4.45410156 C-7.69510159 0.15977582 -5.19820185 -0.03739714 0 0 Z " fill="#BEC8F6" transform="translate(221.8798828125,262.5458984375)"/>
<path d="M0 0 C2.93909575 0.08107681 5.87409436 0.10249342 8.81420898 0.11401367 C10.68209367 0.13725381 12.54994051 0.16382857 14.41772461 0.1940918 C15.73490227 0.20851067 15.73490227 0.20851067 17.07868958 0.22322083 C18.30092476 0.26161324 18.30092476 0.26161324 19.54785156 0.30078125 C20.26318558 0.31824905 20.97851959 0.33571686 21.7155304 0.35371399 C24.20941395 0.89749672 25.10270387 1.73237 26.61694336 3.76831055 C27.32474313 9.34223371 27.32474313 9.34223371 26.61694336 11.76831055 C24.3830822 14.4247024 22.53705478 15.64171055 19.07614136 16.11790466 C15.81571361 16.23209883 12.57810478 16.21722235 9.31616211 16.15893555 C8.12465042 16.15327576 6.93313873 16.14761597 5.70552063 16.14178467 C1.90475066 16.11941739 -1.89507221 16.0692174 -5.69555664 16.01831055 C-8.27431906 15.99824613 -10.85309627 15.97999527 -13.43188477 15.96362305 C-19.74926449 15.91955126 -26.0660929 15.85263425 -32.38305664 15.76831055 C-31.98523483 15.31398148 -31.58741302 14.8596524 -31.17753601 14.39155579 C-27.80572218 10.515322 -27.80572218 10.515322 -24.79638672 6.35888672 C-18.8195909 -1.78819237 -9.11168856 -0.25572628 0 0 Z " fill="#BFC9F7" transform="translate(386.383056640625,262.231689453125)"/>
<path d="M0 0 C6.93 0 13.86 0 21 0 C21.33 1.32 21.66 2.64 22 4 C20.70825195 5.9387207 20.70825195 5.9387207 18.73828125 7.92578125 C18.03123047 8.63927734 17.32417969 9.35277344 16.59570312 10.08789062 C15.46551758 11.18907227 15.46551758 11.18907227 14.3125 12.3125 C13.57837891 13.06595703 12.84425781 13.81941406 12.08789062 14.59570312 C11.01764648 15.6562793 11.01764648 15.6562793 9.92578125 16.73828125 C9.27005127 17.38837158 8.61432129 18.03846191 7.9387207 18.70825195 C6 20 6 20 3.87963867 19.82885742 C2 19 2 19 0 17 C-0.14557157 14.08274582 -0.18598967 11.28685195 -0.125 8.375 C-0.08375 5.61125 -0.0425 2.8475 0 0 Z " fill="#DEEDFE" transform="translate(144,328)"/>
<path d="M0 0 C6.93 0 13.86 0 21 0 C21.33 1.32 21.66 2.64 22 4 C20.70825195 5.9387207 20.70825195 5.9387207 18.73828125 7.92578125 C18.03123047 8.63927734 17.32417969 9.35277344 16.59570312 10.08789062 C15.46551758 11.18907227 15.46551758 11.18907227 14.3125 12.3125 C13.57837891 13.06595703 12.84425781 13.81941406 12.08789062 14.59570312 C11.01764648 15.6562793 11.01764648 15.6562793 9.92578125 16.73828125 C9.27005127 17.38837158 8.61432129 18.03846191 7.9387207 18.70825195 C6 20 6 20 3.87963867 19.82885742 C2 19 2 19 0 17 C-0.14557157 14.08274582 -0.18598967 11.28685195 -0.125 8.375 C-0.08375 5.61125 -0.0425 2.8475 0 0 Z " fill="#DEEDFE" transform="translate(144,228)"/>
<path d="M0 0 C6.93 0 13.86 0 21 0 C21.33 1.32 21.66 2.64 22 4 C20.70825195 5.9387207 20.70825195 5.9387207 18.73828125 7.92578125 C18.03123047 8.63927734 17.32417969 9.35277344 16.59570312 10.08789062 C15.46551758 11.18907227 15.46551758 11.18907227 14.3125 12.3125 C13.57837891 13.06595703 12.84425781 13.81941406 12.08789062 14.59570312 C11.01764648 15.6562793 11.01764648 15.6562793 9.92578125 16.73828125 C9.27005127 17.38837158 8.61432129 18.03846191 7.9387207 18.70825195 C6 20 6 20 3.87963867 19.82885742 C2 19 2 19 0 17 C-0.14557157 14.08274582 -0.18598967 11.28685195 -0.125 8.375 C-0.08375 5.61125 -0.0425 2.8475 0 0 Z " fill="#DEEDFE" transform="translate(144,128)"/>
<path d="M0 0 C0.02684312 2.81256281 0.04676188 5.62487241 0.0625 8.4375 C0.07087891 9.23994141 0.07925781 10.04238281 0.08789062 10.86914062 C0.0965143 12.91295221 0.0522815 14.95683902 0 17 C-1 18 -1 18 -3.13305664 18.11352539 C-4.04949951 18.10828857 -4.96594238 18.10305176 -5.91015625 18.09765625 C-6.89951172 18.09443359 -7.88886719 18.09121094 -8.90820312 18.08789062 C-9.94912109 18.07951172 -10.99003906 18.07113281 -12.0625 18.0625 C-13.10728516 18.05798828 -14.15207031 18.05347656 -15.22851562 18.04882812 C-17.8190666 18.03699913 -20.40950559 18.02051689 -23 18 C-23 15.69 -23 13.38 -23 11 C-22.19949219 11.26490234 -22.19949219 11.26490234 -21.3828125 11.53515625 C-18.68878533 12.16438405 -16.75715739 12.37708182 -14 12 C-10.19883849 9.43858513 -7.13457457 6.32694918 -4 3 C-1.1173913 0 -1.1173913 0 0 0 Z " fill="#DDEDFE" transform="translate(166,354)"/>
<path d="M0 0 C0.02684312 2.81256281 0.04676188 5.62487241 0.0625 8.4375 C0.07087891 9.23994141 0.07925781 10.04238281 0.08789062 10.86914062 C0.0965143 12.91295221 0.0522815 14.95683902 0 17 C-1 18 -1 18 -3.13305664 18.11352539 C-4.04949951 18.10828857 -4.96594238 18.10305176 -5.91015625 18.09765625 C-6.89951172 18.09443359 -7.88886719 18.09121094 -8.90820312 18.08789062 C-9.94912109 18.07951172 -10.99003906 18.07113281 -12.0625 18.0625 C-13.10728516 18.05798828 -14.15207031 18.05347656 -15.22851562 18.04882812 C-17.8190666 18.03699913 -20.40950559 18.02051689 -23 18 C-23 15.69 -23 13.38 -23 11 C-22.19949219 11.26490234 -22.19949219 11.26490234 -21.3828125 11.53515625 C-18.68878533 12.16438405 -16.75715739 12.37708182 -14 12 C-10.19883849 9.43858513 -7.13457457 6.32694918 -4 3 C-1.1173913 0 -1.1173913 0 0 0 Z " fill="#DDEDFE" transform="translate(166,254)"/>
<path d="M0 0 C0.02684312 2.81256281 0.04676188 5.62487241 0.0625 8.4375 C0.07087891 9.23994141 0.07925781 10.04238281 0.08789062 10.86914062 C0.0965143 12.91295221 0.0522815 14.95683902 0 17 C-1 18 -1 18 -3.13305664 18.11352539 C-4.04949951 18.10828857 -4.96594238 18.10305176 -5.91015625 18.09765625 C-6.89951172 18.09443359 -7.88886719 18.09121094 -8.90820312 18.08789062 C-9.94912109 18.07951172 -10.99003906 18.07113281 -12.0625 18.0625 C-13.10728516 18.05798828 -14.15207031 18.05347656 -15.22851562 18.04882812 C-17.8190666 18.03699913 -20.40950559 18.02051689 -23 18 C-23 15.69 -23 13.38 -23 11 C-22.19949219 11.26490234 -22.19949219 11.26490234 -21.3828125 11.53515625 C-18.68878533 12.16438405 -16.75715739 12.37708182 -14 12 C-10.19883849 9.43858513 -7.13457457 6.32694918 -4 3 C-1.1173913 0 -1.1173913 0 0 0 Z " fill="#DDEDFE" transform="translate(166,154)"/>
<path d="M0 0 C0.99 0.495 0.99 0.495 2 1 C-0.09107118 3.84385681 -2.15794325 6.13227965 -4.87133789 8.40478516 C-10.74446666 13.37780189 -16.07109101 18.94848299 -21.49609375 24.3984375 C-22.69656287 25.60077468 -23.89725518 26.80288905 -25.09815979 28.00479126 C-28.23866548 31.14909163 -31.37615481 34.29638479 -34.51300049 37.44433594 C-37.72232618 40.66394173 -40.93453005 43.88067321 -44.14648438 47.09765625 C-50.43379102 53.39564635 -56.71791106 59.69680565 -63 66 C-61.02 66.33 -59.04 66.66 -57 67 C-57 67.33 -57 67.66 -57 68 C-59.97 68 -62.94 68 -66 68 C-63.86908122 63.73816245 -61.23230596 60.96470449 -57.89794922 57.67089844 C-57.27342865 57.04608582 -56.64890808 56.42127319 -56.00546265 55.77752686 C-53.9432435 53.71669931 -51.8740341 51.66304347 -49.8046875 49.609375 C-48.37221453 48.18063275 -46.94018293 46.75144785 -45.50857544 45.32183838 C-41.74168516 41.56257983 -37.96882707 37.80936643 -34.19470215 34.05737305 C-30.34363269 30.22677183 -26.49822729 26.39049405 -22.65234375 22.5546875 C-15.10710066 15.03088622 -7.55554189 7.51345798 0 0 Z " fill="#F8CF5E" transform="translate(354,191)"/>
</svg>